<?xml version="1.0" standalone="no"?>
<!DOCTYPE svg PUBLIC "-//W3C//DTD SVG 20010904//EN"
 "http://www.w3.org/TR/2001/REC-SVG-20010904/DTD/svg10.dtd">
<svg version="1.0" xmlns="http://www.w3.org/2000/svg"
 width="675.000000pt" height="675.000000pt" viewBox="0 0 675.000000 675.000000"
 preserveAspectRatio="xMidYMid meet">
<metadata>
Created by potrace 1.14, written by Peter Selinger 2001-2017
</metadata>
<g transform="translate(0.000000,675.000000) scale(0.100000,-0.100000)"
fill="#000000" stroke="none">
<path d="M1090 6735 c-134 -25 -281 -84 -387 -156 -69 -47 -188 -164 -239
-235 -54 -76 -127 -228 -148 -309 -34 -136 -36 -220 -36 -1720 0 -1477 4
-1683 35 -1928 82 -641 338 -1185 745 -1586 556 -547 1406 -826 2435 -797 620
17 1093 121 1540 341 265 130 459 266 658 463 468 462 718 1066 767 1857 14
222 13 3113 -1 3225 -15 122 -35 193 -85 299 -55 118 -112 197 -205 287 -122
118 -272 201 -442 246 -79 21 -105 22 -707 26 -437 2 -649 0 -705 -8 -239 -35
-467 -163 -615 -347 -95 -118 -147 -221 -193 -383 -22 -75 -22 -81 -27 -1555
-3 -814 -9 -1487 -13 -1496 -17 -34 -167 -34 -184 0 -4 9 -10 682 -13 1496 -6
1622 -2 1503 -65 1671 -119 317 -401 549 -743 609 -110 20 -1262 19 -1372 0z
m1350 -641 c90 -41 157 -117 194 -219 7 -21 12 -477 16 -1510 6 -1668 -1
-1520 86 -1702 91 -191 259 -307 498 -344 90 -14 280 -6 366 17 243 63 402
225 476 484 17 61 19 146 24 1550 l5 1485 28 60 c36 78 97 140 172 176 l60 29
602 0 c593 0 603 0 660 -22 79 -29 162 -112 192 -192 l22 -59 -4 -1641 -3
-1641 -22 -139 c-28 -171 -79 -372 -127 -502 -51 -137 -153 -331 -233 -444
-83 -117 -269 -307 -382 -390 -324 -238 -717 -378 -1235 -442 -176 -21 -793
-18 -965 5 -485 66 -845 195 -1162 417 -119 83 -324 288 -410 410 -81 114
-182 307 -233 445 -48 129 -99 328 -127 502 l-22 138 -3 1641 -4 1641 22 59
c29 78 113 163 189 192 54 20 69 21 660 21 l605 1 55 -26z"/>
</g>
</svg>
