<?xml version="1.0" standalone="no"?>
<!DOCTYPE svg PUBLIC "-//W3C//DTD SVG 20010904//EN"
 "http://www.w3.org/TR/2001/REC-SVG-20010904/DTD/svg10.dtd">
<svg version="1.0" xmlns="http://www.w3.org/2000/svg"
 width="700.000000pt" height="700.000000pt" viewBox="0 0 700.000000 700.000000"
 preserveAspectRatio="xMidYMid meet">
<metadata>
Created by potrace 1.14, written by Peter Selinger 2001-2017
</metadata>
<g transform="translate(0.000000,700.000000) scale(0.100000,-0.100000)"
fill="#000000" stroke="none">
<path d="M2040 6221 c-92 -20 -200 -62 -271 -106 -138 -86 -265 -225 -330
-362 -17 -37 -333 -969 -701 -2072 -542 -1627 -670 -2023 -680 -2094 -43 -322
152 -648 462 -774 132 -53 153 -54 814 -51 677 4 653 2 803 73 238 112 381
293 453 573 l11 42 235 -2 235 -3 33 -100 c38 -117 63 -168 121 -250 87 -123
210 -220 351 -276 149 -60 153 -60 1020 -57 l789 3 88 31 c125 45 190 87 292
189 95 95 141 168 186 295 23 64 23 72 30 715 6 592 12 721 34 743 3 4 93 10
198 13 164 5 202 9 257 28 114 40 181 82 271 171 70 69 94 101 128 170 77 157
74 131 78 744 4 571 1 632 -38 750 -68 205 -275 390 -489 441 -93 21 -247 19
-348 -5 -103 -25 -256 -81 -345 -128 l-68 -35 -37 22 c-60 36 -122 61 -202 84
-69 18 -112 21 -504 26 l-429 6 -113 337 c-63 190 -131 372 -154 416 -122 236
-355 404 -624 451 -38 7 -313 11 -765 10 -640 0 -714 -2 -791 -18z m1469 -501
c103 -17 191 -75 243 -158 13 -21 120 -327 240 -682 174 -518 217 -636 218
-600 1 92 74 185 163 209 30 9 170 11 488 9 l446 -3 49 -30 c30 -19 60 -49 79
-79 30 -49 30 -51 33 -213 l4 -164 41 63 c60 89 192 224 283 290 142 102 368
198 466 198 57 0 123 -40 148 -90 19 -38 20 -59 20 -560 0 -559 1 -549 -52
-596 -45 -41 -65 -45 -241 -48 -260 -5 -372 -42 -493 -161 -69 -69 -113 -149
-146 -270 -21 -77 -22 -101 -27 -730 -7 -716 -4 -682 -70 -758 -66 -74 -38
-72 -856 -72 l-730 0 -55 26 c-69 32 -117 80 -145 144 -13 27 -51 155 -86 283
l-64 232 -629 -2 -629 -3 -72 -258 c-76 -268 -95 -313 -158 -361 -82 -63 -63
-61 -635 -64 -567 -3 -611 0 -677 47 -53 38 -95 118 -95 180 0 34 166 543 658
2021 363 1086 667 1991 677 2010 48 96 151 173 253 190 72 12 1276 12 1351 0z"/>
<path d="M2661 3599 c-95 -346 -172 -632 -169 -634 3 -3 160 -4 350 -3 l345 3
-173 628 c-95 346 -174 630 -176 632 -2 2 -81 -280 -177 -626z"/>
</g>
</svg>
