<?xml version="1.0" standalone="no"?>
<!DOCTYPE svg PUBLIC "-//W3C//DTD SVG 20010904//EN"
 "http://www.w3.org/TR/2001/REC-SVG-20010904/DTD/svg10.dtd">
<svg version="1.0" xmlns="http://www.w3.org/2000/svg"
 width="675.000000pt" height="675.000000pt" viewBox="0 0 675.000000 675.000000"
 preserveAspectRatio="xMidYMid meet">
<metadata>
Created by potrace 1.14, written by Peter Selinger 2001-2017
</metadata>
<g transform="translate(0.000000,675.000000) scale(0.100000,-0.100000)"
fill="#000000" stroke="none">
<path d="M2730 6744 c-172 -29 -300 -77 -428 -161 -192 -127 -331 -316 -404
-553 l-23 -75 -3 -2540 c-3 -2780 -6 -2597 54 -2769 106 -305 383 -548 709
-623 73 -16 135 -18 740 -18 607 0 666 1 740 19 328 76 602 316 709 622 60
172 57 -11 54 2769 l-3 2540 -23 74 c-109 352 -365 601 -713 693 -82 21 -98
22 -734 24 -357 1 -661 0 -675 -2z m1307 -646 c42 -15 75 -38 120 -83 52 -53
64 -72 82 -131 l21 -69 -2 -2460 -3 -2460 -33 -67 c-40 -81 -110 -148 -190
-180 l-57 -23 -600 0 -600 0 -57 23 c-81 33 -158 106 -194 184 l-29 63 0 2485
0 2485 28 57 c35 71 119 150 190 177 50 19 75 20 659 20 599 1 608 1 665 -21z"/>
</g>
</svg>
