<svg xmlns="http://www.w3.org/2000/svg" viewBox="0 0 60 60"><path fill="#405866" d="M59.994 29.998c.034-.578-.088-1.16-.433-1.647-4.057-5.723-8.759-10.83-14.604-14.95-7.915-5.357-16.99-6.616-25.794-2.436-3.906 1.852-7.413 4.644-10.487 7.564-2.992 2.838-6.217 6.276-8.237 9.827a3.398 3.398 0 00-.437 1.646h.003c-.033.578.089 1.161.434 1.646C4.498 37.37 9.2 42.478 15.044 46.6c7.915 5.353 16.99 6.615 25.794 2.434 3.905-1.852 7.411-4.644 10.486-7.555 2.992-2.838 6.219-6.277 8.237-9.828A3.389 3.389 0 0060 30.006h-.006"/><path fill="#fff" d="M52.913 29.998c.026-.443-.07-.89-.332-1.257-3.101-4.377-6.694-8.278-11.157-11.424-6.048-4.092-12.98-5.05-19.706-1.86-2.983 1.414-5.666 3.548-8.013 5.775C11.42 23.4 8.96 26.03 7.41 28.742A2.577 2.577 0 007.077 30h.005c-.028.44.068.887.33 1.257 3.101 4.374 6.694 8.277 11.158 11.422 6.048 4.091 12.979 5.053 19.707 1.861 2.982-1.415 5.666-3.549 8.011-5.775 2.287-2.167 4.752-4.798 6.294-7.509a2.59 2.59 0 00.334-1.257h-.003"/><path fill="#ccc" d="M20.503 42.68c-4.466-3.145-8.058-7.047-11.157-11.421-.264-.372-.358-.819-.332-1.257h-.003c0-.443.12-.886.333-1.257 1.543-2.713 4.008-5.343 6.292-7.51 2.35-2.227 5.03-4.362 8.013-5.774 2.4-1.14 4.822-1.745 7.226-1.875-3.028-.161-6.112.428-9.156 1.875-2.983 1.412-5.667 3.547-8.013 5.774-2.285 2.167-4.745 4.796-6.295 7.51a2.571 2.571 0 00-.333 1.257h.005c-.028.438.068.885.33 1.257 3.101 4.374 6.694 8.277 11.158 11.422 3.892 2.632 8.148 3.966 12.48 3.736-3.66-.196-7.238-1.496-10.548-3.736"/><path fill="#bcbec0" d="M39.795 42.69c4.466-3.149 8.058-7.049 11.157-11.425.266-.369.359-.815.334-1.255h.002c0-.443-.124-.884-.334-1.258-1.543-2.713-4.009-5.343-6.292-7.51-2.351-2.224-5.03-4.357-8.014-5.774-2.399-1.138-4.823-1.744-7.225-1.875 3.029-.16 6.112.43 9.156 1.875 2.983 1.417 5.657 3.549 8.01 5.775 2.286 2.167 4.752 4.796 6.293 7.509.215.373.337.815.337 1.258h-.008c.03.44-.068.886-.33 1.255-3.099 4.376-6.692 8.277-11.155 11.425-3.89 2.632-8.149 3.965-12.483 3.734 3.664-.196 7.242-1.494 10.552-3.734"/><path fill="#237a99" d="M37.514 30.003a7.516 7.516 0 11-15.031 0 7.516 7.516 0 0115.03 0"/><path fill="#34abc6" d="M29.998 16.45c-7.482 0-13.549 6.067-13.549 13.553 0 7.484 6.067 13.55 13.55 13.55 7.484 0 13.552-6.066 13.552-13.55.001-7.486-6.067-13.553-13.553-13.553m0 21.089a7.391 7.391 0 010-14.782 7.391 7.391 0 110 14.782"/><path fill="#242f35" d="M34.928 30.145A4.926 4.926 0 0130 35.072a4.93 4.93 0 01-4.93-4.927 4.929 4.929 0 119.857 0"/><rect width="6.054" height="70.636" x="40.106" y="-35.318" fill="#405866" rx="2.232" ry="1.149" transform="rotate(45)"/></svg>