<?xml version="1.0" standalone="no"?>
<!DOCTYPE svg PUBLIC "-//W3C//DTD SVG 20010904//EN"
 "http://www.w3.org/TR/2001/REC-SVG-20010904/DTD/svg10.dtd">
<svg version="1.0" xmlns="http://www.w3.org/2000/svg"
 width="675.000000pt" height="675.000000pt" viewBox="0 0 675.000000 675.000000"
 preserveAspectRatio="xMidYMid meet">
<metadata>
Created by potrace 1.14, written by Peter Selinger 2001-2017
</metadata>
<g transform="translate(0.000000,675.000000) scale(0.100000,-0.100000)"
fill="#000000" stroke="none">
<path d="M1010 6735 c-403 -74 -708 -376 -791 -780 -16 -79 -25 -4844 -10
-5035 16 -191 66 -344 158 -483 151 -227 380 -375 652 -422 77 -14 185 -15
733 -12 705 4 691 3 850 67 239 97 438 288 536 515 60 139 74 212 79 423 4
155 8 191 18 180 7 -7 108 -168 225 -358 117 -190 237 -378 267 -417 122 -162
315 -298 513 -363 148 -48 211 -51 865 -48 l610 4 100 27 c203 55 384 172 510
330 126 158 197 335 215 541 14 156 13 4804 0 4951 -43 457 -370 808 -819 881
-128 21 -1263 20 -1382 -1 -347 -60 -630 -294 -748 -617 -46 -123 -54 -179
-60 -383 l-6 -200 -26 40 c-14 22 -119 191 -234 375 -115 184 -228 360 -251
390 -49 65 -173 184 -235 227 -97 67 -237 127 -369 160 -91 23 -1283 29 -1400
8z m1355 -649 c119 -58 111 -46 975 -1436 l805 -1294 5 1250 c5 1158 6 1252
22 1293 34 83 93 147 178 192 l45 24 640 0 640 0 50 -27 c68 -35 128 -97 162
-166 l28 -57 0 -2490 0 -2490 -28 -56 c-36 -75 -117 -150 -192 -180 l-60 -24
-520 -3 c-331 -2 -549 1 -600 7 -100 14 -185 54 -251 119 -36 36 -259 387
-854 1347 l-805 1299 -5 -1245 -5 -1244 -24 -60 c-33 -81 -115 -163 -196 -196
l-60 -24 -600 0 c-549 0 -604 2 -650 18 -69 24 -135 75 -174 133 -66 100 -61
-99 -59 2619 l3 2470 28 60 c35 74 110 147 180 174 50 20 72 20 657 18 l605
-2 60 -29z"/>
</g>
</svg>
