<?xml version="1.0" standalone="no"?>
<!DOCTYPE svg PUBLIC "-//W3C//DTD SVG 20010904//EN"
 "http://www.w3.org/TR/2001/REC-SVG-20010904/DTD/svg10.dtd">
<svg version="1.0" xmlns="http://www.w3.org/2000/svg"
 width="700.000000pt" height="700.000000pt" viewBox="0 0 700.000000 700.000000"
 preserveAspectRatio="xMidYMid meet">
<metadata>
Created by potrace 1.14, written by Peter Selinger 2001-2017
</metadata>
<g transform="translate(0.000000,700.000000) scale(0.100000,-0.100000)"
fill="#000000" stroke="none">
<path d="M1555 6224 c-145 -31 -285 -107 -394 -215 -104 -104 -175 -227 -214
-372 l-22 -82 0 -2060 0 -2060 28 -88 c49 -158 114 -264 225 -369 117 -110
258 -181 412 -208 44 -7 238 -10 605 -8 l540 3 93 32 c134 45 222 101 327 207
155 156 223 319 234 562 l6 132 170 -276 c94 -152 195 -308 226 -347 110 -139
258 -233 459 -293 80 -24 1051 -31 1170 -8 349 66 609 349 650 709 8 62 10
731 8 2082 l-3 1990 -22 80 c-85 303 -322 530 -618 590 -70 14 -154 16 -625
13 -613 -4 -591 -2 -755 -83 -164 -81 -280 -197 -360 -360 -58 -117 -77 -200
-84 -365 l-6 -135 -189 305 c-164 263 -201 316 -270 386 -132 131 -262 202
-438 238 -109 23 -1046 22 -1153 0z m1125 -530 c43 -20 80 -48 109 -80 24 -27
327 -506 675 -1065 347 -559 639 -1027 648 -1040 16 -23 17 33 17 982 1 1114
-2 1056 67 1137 19 23 60 53 92 69 l57 28 495 0 495 0 53 -24 c69 -31 137
-106 157 -174 13 -44 15 -294 15 -2027 0 -1733 -2 -1983 -15 -2027 -20 -68
-88 -143 -157 -174 l-53 -24 -475 0 -475 0 -67 32 c-37 17 -86 51 -110 76 -26
27 -295 450 -688 1086 l-645 1042 -5 -1013 -5 -1013 -27 -51 c-31 -59 -84
-108 -147 -138 -44 -20 -63 -21 -498 -24 -456 -3 -529 1 -598 33 -52 26 -113
93 -135 152 -20 53 -20 79 -20 2046 1 1651 3 1999 14 2030 34 94 121 171 213
187 26 5 251 8 498 7 l450 -2 65 -31z"/>
</g>
</svg>
