<?xml version="1.0" standalone="no"?>
<!DOCTYPE svg PUBLIC "-//W3C//DTD SVG 20010904//EN"
 "http://www.w3.org/TR/2001/REC-SVG-20010904/DTD/svg10.dtd">
<svg version="1.0" xmlns="http://www.w3.org/2000/svg"
 width="700.000000pt" height="700.000000pt" viewBox="0 0 700.000000 700.000000"
 preserveAspectRatio="xMidYMid meet">
<metadata>
Created by potrace 1.14, written by Peter Selinger 2001-2017
</metadata>
<g transform="translate(0.000000,700.000000) scale(0.100000,-0.100000)"
fill="#000000" stroke="none">
<path d="M3290 6308 c-564 -52 -1067 -247 -1515 -586 -138 -106 -381 -351
-491 -497 -307 -410 -489 -870 -549 -1390 -19 -168 -20 -511 0 -675 61 -519
238 -972 537 -1373 118 -158 373 -413 530 -530 405 -303 844 -479 1378 -554
183 -25 639 -25 805 1 239 37 467 102 686 197 114 49 120 51 142 35 78 -58
161 -107 217 -129 114 -44 170 -51 395 -51 245 1 301 11 440 79 157 77 264
184 340 340 80 165 75 83 75 1351 0 773 -3 1149 -11 1190 -15 83 -62 200 -110
275 -101 158 -286 298 -450 340 l-48 12 52 58 c137 151 204 337 194 534 -13
244 -107 410 -358 634 -474 424 -1026 671 -1643 736 -157 16 -459 18 -616 3z
m627 -523 c513 -66 1004 -310 1355 -672 100 -104 118 -136 118 -216 0 -47 -23
-103 -58 -141 -45 -48 -886 -604 -933 -616 -42 -12 -108 -6 -144 12 -11 6 -51
35 -90 64 -184 139 -402 204 -639 191 -182 -11 -334 -58 -470 -147 -328 -214
-467 -628 -355 -1055 66 -252 238 -469 461 -581 123 -62 225 -86 390 -91 327
-12 577 76 737 258 36 41 91 122 91 134 0 3 -154 5 -343 5 -384 0 -401 2 -476
67 -23 19 -54 58 -69 87 -27 50 -27 53 -30 279 -4 271 3 307 73 385 25 28 67
61 93 74 l47 23 935 0 c930 0 935 0 981 -21 66 -31 114 -78 146 -142 l28 -57
0 -1080 c0 -1224 6 -1137 -81 -1214 -58 -51 -103 -61 -271 -61 -152 0 -192 8
-242 44 -56 42 -78 86 -121 247 -22 85 -43 160 -45 167 -3 8 -39 -18 -97 -68
-263 -231 -566 -369 -953 -437 -146 -26 -605 -25 -760 0 -707 117 -1264 477
-1622 1049 -416 663 -453 1566 -94 2281 351 699 1033 1156 1851 1240 106 11
479 6 587 -8z"/>
</g>
</svg>
