<?xml version="1.0" standalone="no"?>
<!DOCTYPE svg PUBLIC "-//W3C//DTD SVG 20010904//EN"
 "http://www.w3.org/TR/2001/REC-SVG-20010904/DTD/svg10.dtd">
<svg version="1.0" xmlns="http://www.w3.org/2000/svg"
 width="675.000000pt" height="675.000000pt" viewBox="0 0 675.000000 675.000000"
 preserveAspectRatio="xMidYMid meet">
<metadata>
Created by potrace 1.14, written by Peter Selinger 2001-2017
</metadata>
<g transform="translate(0.000000,675.000000) scale(0.100000,-0.100000)"
fill="#000000" stroke="none">
<path d="M1117 6734 c-307 -55 -560 -240 -700 -510 -60 -117 -95 -240 -107
-378 -14 -153 -13 -4781 0 -4936 12 -134 37 -233 85 -337 126 -272 360 -466
660 -546 77 -20 106 -21 705 -25 683 -4 740 -1 895 50 294 95 537 347 626 646
l12 42 74 -142 c41 -79 99 -176 130 -215 131 -173 310 -290 541 -356 76 -22
85 -22 882 -22 907 0 880 -2 1041 76 246 119 402 315 465 584 22 96 14 300
-15 403 -29 100 -32 106 -441 823 l-361 632 31 36 c257 304 408 595 493 956
86 363 94 819 21 1215 -196 1065 -960 1767 -2134 1959 -345 57 -473 61 -1720
60 -902 -1 -1119 -3 -1183 -15z m2652 -637 c548 -79 910 -222 1220 -483 302
-253 501 -633 566 -1084 22 -149 30 -461 16 -595 -15 -143 -46 -298 -82 -410
-41 -127 -148 -335 -223 -435 -82 -110 -246 -267 -364 -350 -51 -35 -92 -67
-92 -70 0 -3 222 -396 494 -872 272 -477 500 -884 506 -904 28 -85 -16 -193
-98 -241 l-47 -28 -675 -3 c-725 -3 -796 0 -881 44 -102 51 -103 53 -523 884
l-391 775 -247 3 -248 2 0 -687 c0 -741 -1 -757 -53 -845 -31 -53 -91 -109
-147 -138 -72 -36 -168 -41 -740 -38 -542 3 -545 3 -602 26 -76 31 -159 108
-195 180 l-28 57 -3 2470 c-2 2738 -8 2525 64 2621 48 64 83 92 152 120 l57
24 1225 -3 c1075 -3 1239 -5 1339 -20z"/>
<path d="M2700 4161 l0 -421 339 0 c370 0 443 7 550 55 69 31 142 102 170 165
33 76 46 180 33 267 -29 181 -114 275 -297 324 -73 20 -110 22 -437 27 l-358
4 0 -421z"/>
</g>
</svg>
