<?xml version="1.0" standalone="no"?>
<!DOCTYPE svg PUBLIC "-//W3C//DTD SVG 20010904//EN"
 "http://www.w3.org/TR/2001/REC-SVG-20010904/DTD/svg10.dtd">
<svg version="1.0" xmlns="http://www.w3.org/2000/svg"
 width="675.000000pt" height="675.000000pt" viewBox="0 0 675.000000 675.000000"
 preserveAspectRatio="xMidYMid meet">
<metadata>
Created by potrace 1.14, written by Peter Selinger 2001-2017
</metadata>
<g transform="translate(0.000000,675.000000) scale(0.100000,-0.100000)"
fill="#000000" stroke="none">
<path d="M3235 6744 c-755 -61 -1365 -289 -1925 -720 -147 -113 -440 -406
-554 -554 -373 -482 -595 -1016 -682 -1640 -22 -157 -30 -600 -14 -772 89
-991 578 -1853 1373 -2423 462 -331 1008 -538 1617 -612 222 -27 651 -24 870
5 342 46 626 128 924 266 l77 35 62 -50 c78 -63 218 -131 327 -161 79 -21 104
-23 360 -22 251 0 282 2 353 22 318 88 546 307 644 617 l28 90 0 1395 0 1395
-23 80 c-64 220 -177 389 -344 516 -87 65 -229 139 -310 160 -27 7 -48 16 -48
19 0 4 14 19 31 36 49 46 124 153 162 229 107 214 122 450 45 683 -51 153
-119 253 -293 427 -528 529 -1238 867 -2015 960 -129 16 -556 27 -665 19z
m580 -639 c638 -73 1195 -333 1632 -759 164 -159 187 -199 181 -309 -6 -138
10 -123 -568 -510 -278 -186 -526 -349 -552 -362 -110 -57 -188 -43 -321 57
-118 88 -283 170 -412 204 -137 36 -357 44 -506 19 -609 -101 -978 -634 -883
-1273 77 -521 443 -889 948 -952 183 -23 435 3 615 65 140 47 287 144 369 243
44 53 112 153 112 164 0 5 -187 8 -415 8 -392 0 -417 1 -469 20 -76 29 -139
88 -178 168 l-33 67 0 285 0 285 29 62 c33 73 103 143 173 176 l48 22 1095 3
c1075 2 1096 2 1162 -18 84 -25 164 -95 205 -178 l28 -57 3 -1288 c1 -860 -1
-1301 -8 -1327 -16 -60 -70 -131 -124 -165 l-49 -30 -211 -3 c-233 -3 -266 3
-332 60 -53 47 -70 84 -114 243 -23 83 -48 174 -56 204 l-15 54 -52 -50 c-325
-314 -741 -507 -1262 -585 -142 -21 -668 -18 -815 5 -248 39 -461 96 -663 176
-939 372 -1562 1188 -1689 2211 -19 154 -16 554 6 710 125 904 632 1637 1419
2050 319 168 685 274 1077 313 106 11 507 6 625 -8z"/>
</g>
</svg>
