<?xml version="1.0" standalone="no"?>
<!DOCTYPE svg PUBLIC "-//W3C//DTD SVG 20010904//EN"
 "http://www.w3.org/TR/2001/REC-SVG-20010904/DTD/svg10.dtd">
<svg version="1.0" xmlns="http://www.w3.org/2000/svg"
 width="700.000000pt" height="700.000000pt" viewBox="0 0 700.000000 700.000000"
 preserveAspectRatio="xMidYMid meet">
<metadata>
Created by potrace 1.14, written by Peter Selinger 2001-2017
</metadata>
<g transform="translate(0.000000,700.000000) scale(0.100000,-0.100000)"
fill="#000000" stroke="none">
<path d="M2056 6224 c-301 -65 -548 -313 -612 -613 -11 -55 -14 -392 -14
-2111 0 -2019 0 -2046 20 -2130 66 -274 276 -493 560 -582 75 -23 75 -23 645
-23 639 0 621 -2 781 75 163 79 296 211 374 374 72 151 73 156 77 589 l4 387
390 0 c316 0 404 3 466 16 329 68 585 339 633 670 8 53 10 203 7 459 -3 324
-6 389 -21 440 -24 82 -79 197 -122 257 -34 48 -35 51 -17 63 146 102 254 250
314 430 23 69 24 78 27 542 3 449 2 476 -18 560 -39 168 -140 327 -275 436
-81 65 -149 102 -258 140 l-92 32 -1400 2 c-1211 1 -1409 0 -1469 -13z m2836
-527 c64 -32 111 -80 142 -146 20 -44 21 -60 21 -451 0 -311 -3 -414 -13 -443
-22 -61 -104 -143 -168 -166 -53 -20 -73 -21 -774 -21 l-720 0 0 -305 0 -305
618 0 c683 0 681 0 764 -63 23 -18 56 -55 73 -82 l30 -48 3 -370 3 -369 -24
-52 c-43 -94 -117 -149 -225 -166 -31 -6 -323 -10 -649 -10 l-592 0 -3 -598
c-3 -483 -6 -604 -17 -632 -24 -59 -63 -110 -105 -139 -82 -56 -81 -56 -606
-56 l-485 0 -57 28 c-64 32 -111 80 -142 146 l-21 46 0 2010 0 2010 27 51 c42
80 116 137 201 154 23 4 632 7 1352 7 l1310 -2 57 -28z"/>
</g>
</svg>
