<?xml version="1.0" standalone="no"?>
<!DOCTYPE svg PUBLIC "-//W3C//DTD SVG 20010904//EN"
 "http://www.w3.org/TR/2001/REC-SVG-20010904/DTD/svg10.dtd">
<svg version="1.0" xmlns="http://www.w3.org/2000/svg"
 width="675.000000pt" height="675.000000pt" viewBox="0 0 675.000000 675.000000"
 preserveAspectRatio="xMidYMid meet">
<metadata>
Created by potrace 1.14, written by Peter Selinger 2001-2017
</metadata>
<g transform="translate(0.000000,675.000000) scale(0.100000,-0.100000)"
fill="#000000" stroke="none">
<path d="M1633 6735 c-227 -41 -440 -165 -583 -338 -73 -89 -149 -233 -187
-352 l-28 -90 0 -2575 0 -2575 23 -80 c89 -310 316 -558 611 -665 161 -59 200
-61 906 -58 624 4 642 5 725 26 103 28 251 96 334 156 139 100 272 269 337
431 64 161 69 210 69 707 l0 447 523 3 c508 4 524 5 602 27 365 104 627 378
711 744 21 93 32 840 15 1007 -20 187 -78 345 -175 478 -25 34 -46 65 -46 70
0 4 23 22 50 41 71 48 184 164 236 243 57 85 107 194 136 294 23 78 23 84 23
679 l0 600 -28 89 c-105 336 -358 581 -694 674 l-98 27 -1695 2 c-1361 1
-1709 -1 -1767 -12z m3444 -637 c73 -27 154 -102 190 -177 l28 -56 0 -515 0
-515 -28 -56 c-32 -67 -109 -142 -175 -172 l-47 -22 -912 -3 -913 -2 0 -385 0
-385 803 -2 802 -3 53 -28 c67 -35 124 -92 159 -159 l28 -53 3 -441 c3 -426 2
-443 -18 -497 -42 -113 -129 -191 -245 -222 -51 -13 -165 -15 -822 -15 l-762
0 -3 -748 -3 -747 -33 -67 c-40 -81 -110 -148 -190 -180 -57 -23 -61 -23 -610
-26 -591 -3 -658 0 -741 43 -75 37 -147 123 -171 203 -20 67 -20 83 -18 2532
l3 2465 28 57 c36 74 97 134 172 169 l60 29 1652 0 1652 0 58 -22z"/>
</g>
</svg>
