<?xml version="1.0" standalone="no"?>
<!DOCTYPE svg PUBLIC "-//W3C//DTD SVG 20010904//EN"
 "http://www.w3.org/TR/2001/REC-SVG-20010904/DTD/svg10.dtd">
<svg version="1.0" xmlns="http://www.w3.org/2000/svg"
 width="675.000000pt" height="675.000000pt" viewBox="0 0 675.000000 675.000000"
 preserveAspectRatio="xMidYMid meet">
<metadata>
Created by potrace 1.14, written by Peter Selinger 2001-2017
</metadata>
<g transform="translate(0.000000,675.000000) scale(0.100000,-0.100000)"
fill="#000000" stroke="none">
<path d="M1090 6735 c-332 -60 -602 -276 -733 -585 -76 -181 -71 -56 -75
-1765 -3 -1543 0 -1747 33 -2000 105 -803 470 -1437 1067 -1849 539 -372 1272
-556 2118 -533 615 18 1090 123 1535 342 260 127 458 265 649 453 474 465 725
1069 776 1859 14 219 13 3121 -1 3233 -15 122 -35 193 -85 299 -55 118 -112
197 -205 287 -122 118 -272 201 -442 246 -79 21 -105 22 -707 26 -437 2 -649
0 -705 -8 -239 -35 -467 -163 -615 -347 -95 -118 -147 -221 -193 -383 -22 -75
-22 -81 -27 -1555 -3 -814 -9 -1487 -13 -1496 -17 -34 -167 -34 -184 0 -4 9
-10 682 -13 1496 -5 1474 -5 1480 -27 1555 -46 163 -98 265 -193 384 -143 177
-354 300 -588 341 -110 20 -1262 19 -1372 0z m1360 -644 c84 -44 149 -120 184
-216 7 -21 12 -479 16 -1510 6 -1668 -1 -1520 86 -1702 130 -272 441 -402 809
-338 271 48 452 216 531 495 17 61 19 146 24 1545 4 1031 9 1489 16 1510 35
96 100 172 184 216 l45 24 611 3 c608 3 612 2 670 -19 80 -30 163 -113 193
-193 l22 -59 -4 -1641 -3 -1641 -22 -139 c-28 -171 -79 -372 -127 -502 -51
-137 -153 -331 -233 -444 -83 -117 -269 -307 -382 -390 -324 -238 -717 -378
-1235 -442 -176 -21 -793 -18 -965 5 -485 66 -847 195 -1162 417 -120 84 -325
289 -410 410 -81 114 -182 307 -233 445 -48 129 -99 328 -127 502 l-22 138 -3
1641 -4 1641 22 59 c29 78 113 162 189 192 54 21 64 21 670 19 l615 -2 45 -24z"/>
</g>
</svg>
