<?xml version="1.0" standalone="no"?>
<!DOCTYPE svg PUBLIC "-//W3C//DTD SVG 20010904//EN"
 "http://www.w3.org/TR/2001/REC-SVG-20010904/DTD/svg10.dtd">
<svg version="1.0" xmlns="http://www.w3.org/2000/svg"
 width="675.000000pt" height="675.000000pt" viewBox="0 0 675.000000 675.000000"
 preserveAspectRatio="xMidYMid meet">
<metadata>
Created by potrace 1.14, written by Peter Selinger 2001-2017
</metadata>
<g transform="translate(0.000000,675.000000) scale(0.100000,-0.100000)"
fill="#000000" stroke="none">
<path d="M1008 6734 c-371 -68 -668 -337 -768 -695 -11 -41 -25 -123 -30 -184
-14 -152 -13 -4814 0 -4957 41 -429 325 -766 736 -870 88 -23 96 -23 759 -23
617 0 676 1 749 18 305 72 564 285 685 565 60 137 73 208 78 420 4 155 8 191
18 180 7 -7 108 -168 225 -358 117 -190 237 -378 267 -417 122 -162 315 -298
513 -363 147 -48 211 -51 865 -48 l610 3 100 28 c203 55 384 172 510 330 126
158 197 335 215 541 14 155 13 4804 0 4951 -12 128 -30 200 -78 309 -132 303
-401 513 -734 571 -122 22 -1267 22 -1389 0 -383 -67 -681 -340 -780 -715 -18
-69 -23 -123 -28 -285 l-6 -200 -249 399 c-207 330 -263 413 -329 482 -154
163 -314 256 -537 311 -93 23 -1283 29 -1402 7z m1357 -648 c119 -58 111 -47
975 -1436 l805 -1294 5 1250 c5 1158 6 1252 22 1293 34 83 93 147 178 192 l45
24 635 0 635 0 55 -26 c69 -33 133 -97 168 -169 l27 -55 0 -2490 0 -2490 -28
-57 c-36 -72 -119 -149 -195 -180 -57 -22 -61 -23 -577 -26 -331 -2 -549 1
-600 7 -100 14 -185 54 -251 119 -36 36 -260 388 -854 1347 l-805 1299 -5
-1245 -5 -1244 -24 -60 c-29 -71 -103 -150 -174 -184 -78 -38 -173 -42 -749
-39 -486 4 -548 6 -588 21 -66 26 -132 78 -169 133 -66 100 -61 -99 -59 2619
l3 2470 28 60 c35 74 110 147 180 174 50 20 72 20 657 18 l605 -2 60 -29z"/>
</g>
</svg>
