<?xml version="1.0" standalone="no"?>
<!DOCTYPE svg PUBLIC "-//W3C//DTD SVG 20010904//EN"
 "http://www.w3.org/TR/2001/REC-SVG-20010904/DTD/svg10.dtd">
<svg version="1.0" xmlns="http://www.w3.org/2000/svg"
 width="675.000000pt" height="675.000000pt" viewBox="0 0 675.000000 675.000000"
 preserveAspectRatio="xMidYMid meet">
<metadata>
Created by potrace 1.14, written by Peter Selinger 2001-2017
</metadata>
<g transform="translate(0.000000,675.000000) scale(0.100000,-0.100000)"
fill="#000000" stroke="none">
<path d="M1393 6735 c-365 -66 -656 -321 -766 -670 -44 -141 -49 -226 -45
-810 4 -511 6 -544 26 -620 85 -321 284 -554 576 -675 142 -60 211 -71 464
-77 l222 -5 0 -1488 c0 -1613 -2 -1564 55 -1729 105 -309 364 -548 686 -633
82 -21 101 -22 719 -26 444 -2 659 0 715 8 344 50 636 276 766 594 78 191 73
60 76 1759 l4 1517 167 0 c264 0 390 22 548 95 210 96 390 284 481 498 76 181
76 180 80 777 3 365 1 567 -7 635 -47 404 -332 730 -731 837 l-84 23 -1940 2
c-1562 1 -1954 -1 -2012 -12z m3932 -636 c68 -25 151 -103 186 -174 l24 -50 0
-555 0 -555 -26 -56 c-33 -69 -91 -129 -161 -166 l-53 -28 -515 -5 -515 -5 -5
-1810 -5 -1810 -26 -55 c-54 -114 -152 -183 -287 -201 -48 -6 -281 -9 -622 -7
-543 3 -545 3 -603 27 -69 27 -153 105 -185 171 -12 25 -26 77 -31 115 -7 45
-11 695 -11 1822 l0 1752 -512 3 -513 3 -55 26 c-70 33 -136 99 -169 169 l-26
55 -3 535 c-3 598 -3 593 67 686 37 49 119 107 176 123 17 5 869 10 1922 10
l1892 1 56 -21z"/>
</g>
</svg>
