<?xml version="1.0" standalone="no"?>
<!DOCTYPE svg PUBLIC "-//W3C//DTD SVG 20010904//EN"
 "http://www.w3.org/TR/2001/REC-SVG-20010904/DTD/svg10.dtd">
<svg version="1.0" xmlns="http://www.w3.org/2000/svg"
 width="675.000000pt" height="675.000000pt" viewBox="0 0 675.000000 675.000000"
 preserveAspectRatio="xMidYMid meet">
<metadata>
Created by potrace 1.14, written by Peter Selinger 2001-2017
</metadata>
<g transform="translate(0.000000,675.000000) scale(0.100000,-0.100000)"
fill="#000000" stroke="none">
<path d="M1392 6735 c-107 -20 -195 -51 -292 -102 -287 -153 -470 -420 -510
-743 -8 -66 -10 -257 -8 -635 4 -509 6 -545 26 -620 82 -315 288 -555 576
-676 142 -59 212 -70 464 -76 l222 -5 0 -1488 c0 -1613 -2 -1564 55 -1729 106
-311 367 -551 691 -633 88 -23 95 -23 769 -23 668 0 681 1 757 22 316 90 553
294 669 577 78 191 73 61 76 1757 l4 1516 222 6 c240 6 301 15 432 66 270 104
482 329 575 609 44 133 50 225 50 752 0 298 -4 531 -11 585 -48 396 -335 721
-730 827 l-84 23 -1940 1 c-1590 2 -1953 0 -2013 -11z m3933 -636 c68 -25 151
-103 186 -174 l24 -50 0 -555 0 -555 -26 -56 c-33 -69 -91 -129 -161 -166
l-53 -28 -515 -5 -515 -5 -5 -1810 -5 -1810 -26 -56 c-53 -113 -152 -182 -287
-200 -48 -6 -281 -9 -622 -7 -543 3 -545 3 -603 27 -70 28 -153 105 -186 173
-12 26 -27 76 -32 110 -5 36 -9 819 -9 1820 l0 1757 -512 3 -513 3 -55 26
c-70 33 -136 99 -169 169 l-26 55 -3 534 c-3 594 -3 594 62 683 40 54 102 99
166 121 40 14 243 16 1937 17 l1892 0 56 -21z"/>
</g>
</svg>
