<?xml version="1.0" standalone="no"?>
<!DOCTYPE svg PUBLIC "-//W3C//DTD SVG 20010904//EN"
 "http://www.w3.org/TR/2001/REC-SVG-20010904/DTD/svg10.dtd">
<svg version="1.0" xmlns="http://www.w3.org/2000/svg"
 width="675.000000pt" height="675.000000pt" viewBox="0 0 675.000000 675.000000"
 preserveAspectRatio="xMidYMid meet">
<metadata>
Created by potrace 1.14, written by Peter Selinger 2001-2017
</metadata>
<g transform="translate(0.000000,675.000000) scale(0.100000,-0.100000)"
fill="#000000" stroke="none">
<path d="M880 6744 c-281 -47 -493 -168 -663 -379 -70 -87 -134 -222 -174
-365 -17 -62 -18 -189 -18 -2620 l0 -2555 22 -82 c103 -385 403 -661 792 -728
76 -13 180 -15 663 -13 l573 4 100 27 c380 103 637 389 720 799 l5 26 74 -28
c125 -46 192 -55 416 -55 220 1 280 10 403 60 34 13 62 23 63 22 2 -1 10 -37
19 -80 81 -394 391 -692 791 -762 126 -22 1131 -22 1257 0 405 71 715 378 792
786 14 75 15 350 12 2614 l-2 2530 -22 70 c-29 98 -47 143 -78 206 -111 218
-314 395 -546 474 -154 53 -188 55 -909 55 -692 0 -750 -3 -890 -44 -201 -60
-397 -194 -520 -358 -82 -108 -101 -149 -247 -517 -68 -174 -128 -320 -132
-324 -4 -4 -65 140 -136 320 -70 180 -142 355 -161 389 -142 259 -376 435
-684 511 -56 14 -160 17 -780 19 -393 1 -726 0 -740 -2z m1472 -656 c67 -31
140 -96 173 -152 12 -23 206 -509 430 -1081 224 -572 411 -1046 415 -1053 7
-14 20 19 551 1362 303 767 304 770 357 828 36 38 76 69 120 90 l67 33 700 0
700 0 50 -27 c95 -51 154 -123 180 -223 13 -53 15 -330 15 -2482 0 -1755 -3
-2437 -11 -2475 -23 -107 -93 -201 -187 -247 -73 -37 -170 -43 -677 -39 -526
4 -516 3 -608 67 -55 37 -94 89 -124 160 l-23 56 0 1299 c0 715 -3 1296 -6
1293 -4 -4 -179 -448 -390 -988 -264 -678 -391 -993 -412 -1018 -16 -20 -55
-49 -87 -66 -57 -29 -62 -30 -204 -30 -140 0 -148 1 -203 28 -32 16 -72 46
-90 67 -26 30 -116 253 -418 1027 l-385 988 -5 -1310 -5 -1310 -28 -57 c-35
-72 -119 -149 -195 -180 l-57 -23 -535 0 -535 0 -58 24 c-81 32 -166 117 -198
196 l-24 60 0 2475 0 2475 33 67 c39 80 111 148 185 177 51 20 72 20 742 18
l690 -2 57 -27z"/>
</g>
</svg>
