<?xml version="1.0" standalone="no"?>
<!DOCTYPE svg PUBLIC "-//W3C//DTD SVG 20010904//EN"
 "http://www.w3.org/TR/2001/REC-SVG-20010904/DTD/svg10.dtd">
<svg version="1.0" xmlns="http://www.w3.org/2000/svg"
 width="675.000000pt" height="675.000000pt" viewBox="0 0 675.000000 675.000000"
 preserveAspectRatio="xMidYMid meet">
<metadata>
Created by potrace 1.14, written by Peter Selinger 2001-2017
</metadata>
<g transform="translate(0.000000,675.000000) scale(0.100000,-0.100000)"
fill="#000000" stroke="none">
<path d="M2550 6744 c-256 -40 -454 -138 -627 -310 -78 -78 -168 -207 -209
-301 -30 -67 -1644 -4889 -1676 -5008 -18 -66 -22 -105 -22 -225 1 -127 4
-156 28 -233 97 -322 328 -548 653 -639 76 -22 93 -22 793 -26 779 -3 823 -1
977 50 315 104 544 353 639 695 l29 103 241 0 241 0 28 -101 c53 -191 145
-348 275 -473 131 -125 262 -198 444 -249 81 -22 85 -22 851 -22 766 0 770 0
850 22 385 108 653 439 672 828 3 61 0 143 -6 185 -14 96 -1656 5020 -1708
5124 -112 224 -298 400 -523 497 -47 20 -123 47 -170 60 l-85 23 -835 2 c-459
1 -846 0 -860 -2z m1713 -661 c79 -38 163 -116 195 -184 12 -25 390 -1145 839
-2490 748 -2239 816 -2449 816 -2509 0 -37 -7 -81 -16 -102 -22 -52 -90 -122
-145 -150 l-47 -23 -690 0 -690 0 -60 24 c-70 28 -150 103 -183 171 -11 25
-59 180 -105 345 l-84 300 -716 3 -716 2 -20 -67 c-11 -38 -50 -176 -86 -308
-37 -132 -76 -258 -87 -280 -28 -56 -94 -122 -151 -151 -80 -41 -159 -45 -832
-42 -616 3 -631 3 -676 24 -65 31 -114 78 -145 140 -55 113 -117 -93 790 2622
449 1344 826 2462 837 2485 28 53 113 142 167 174 90 53 67 52 932 50 l805 -2
68 -32z"/>
<path d="M3371 4278 c-1 -7 -352 -1493 -366 -1550 l-7 -28 376 0 c207 0 376 2
376 5 0 12 -361 1532 -369 1555 -5 14 -10 22 -10 18z"/>
</g>
</svg>
