<?xml version="1.0" standalone="no"?>
<!DOCTYPE svg PUBLIC "-//W3C//DTD SVG 20010904//EN"
 "http://www.w3.org/TR/2001/REC-SVG-20010904/DTD/svg10.dtd">
<svg version="1.0" xmlns="http://www.w3.org/2000/svg"
 width="675.000000pt" height="675.000000pt" viewBox="0 0 675.000000 675.000000"
 preserveAspectRatio="xMidYMid meet">
<metadata>
Created by potrace 1.14, written by Peter Selinger 2001-2017
</metadata>
<g transform="translate(0.000000,675.000000) scale(0.100000,-0.100000)"
fill="#000000" stroke="none">
<path d="M3395 6739 c-623 -54 -1198 -254 -1690 -590 -323 -220 -636 -533
-854 -854 -300 -442 -481 -927 -557 -1490 -23 -166 -26 -654 -6 -820 69 -561
247 -1056 537 -1490 139 -209 243 -335 424 -515 616 -612 1424 -949 2341 -977
830 -25 1628 229 2256 718 207 162 413 367 492 489 148 230 182 519 90 779
-72 206 -200 358 -428 506 -74 49 -301 199 -505 333 -203 135 -404 264 -445
288 -136 79 -272 114 -440 114 -215 0 -407 -68 -572 -202 -124 -100 -267 -140
-421 -119 -259 36 -397 196 -397 463 0 144 36 243 121 333 102 108 285 157
464 124 83 -15 150 -48 230 -113 82 -67 259 -156 360 -183 99 -25 332 -25 430
1 138 36 240 96 790 463 579 387 622 421 719 567 174 263 192 614 45 896 -52
100 -145 215 -271 335 -552 525 -1222 838 -1993 931 -157 19 -568 26 -720 13z
m759 -648 c506 -83 953 -277 1331 -579 131 -105 321 -297 347 -351 44 -91 19
-232 -54 -297 -12 -12 -255 -176 -538 -365 -571 -381 -578 -384 -683 -360 -55
12 -79 26 -210 123 -176 131 -397 198 -652 198 -599 0 -1035 -386 -1096 -970
-23 -219 18 -445 116 -640 108 -216 308 -398 535 -488 372 -147 832 -92 1115
132 115 91 157 110 245 111 54 0 85 -6 110 -19 101 -55 1054 -693 1075 -720
41 -54 58 -106 58 -176 1 -93 -28 -142 -160 -271 -444 -437 -1002 -698 -1649
-774 -169 -20 -528 -20 -699 0 -650 75 -1234 351 -1670 789 -658 662 -922
1626 -709 2584 109 490 362 950 716 1304 438 435 998 702 1648 783 177 22 653
14 824 -14z"/>
</g>
</svg>
