<?xml version="1.0" standalone="no"?>
<!DOCTYPE svg PUBLIC "-//W3C//DTD SVG 20010904//EN"
 "http://www.w3.org/TR/2001/REC-SVG-20010904/DTD/svg10.dtd">
<svg version="1.0" xmlns="http://www.w3.org/2000/svg"
 width="700.000000pt" height="700.000000pt" viewBox="0 0 700.000000 700.000000"
 preserveAspectRatio="xMidYMid meet">
<metadata>
Created by potrace 1.14, written by Peter Selinger 2001-2017
</metadata>
<g transform="translate(0.000000,700.000000) scale(0.100000,-0.100000)"
fill="#000000" stroke="none">
<path d="M3535 6313 c-715 -60 -1316 -324 -1793 -787 -326 -317 -550 -673
-692 -1106 -242 -732 -183 -1560 158 -2230 264 -518 672 -925 1194 -1191 400
-203 797 -301 1273 -316 782 -23 1485 227 2045 729 262 235 356 399 367 643 7
162 -26 294 -108 431 -67 110 -147 178 -434 368 -705 466 -696 461 -834 497
-101 26 -261 26 -364 -1 -97 -24 -203 -77 -292 -145 -114 -87 -150 -100 -285
-100 -132 0 -189 16 -267 75 -51 38 -106 120 -125 185 -18 63 -15 211 5 275
35 106 111 184 222 226 39 15 76 19 165 19 136 0 163 -10 293 -104 155 -113
294 -161 463 -161 126 0 218 20 319 68 114 55 963 623 1031 690 112 109 189
265 214 426 22 146 -7 303 -82 451 -36 69 -63 101 -202 240 -211 210 -411 359
-656 489 -437 231 -885 339 -1387 334 -103 -1 -206 -3 -228 -5z m562 -528
c501 -66 956 -283 1322 -631 107 -102 145 -154 156 -216 10 -53 -11 -128 -47
-172 -39 -47 -881 -610 -934 -625 -83 -23 -146 -3 -256 80 -98 73 -210 129
-328 161 -120 32 -353 32 -484 0 -432 -108 -693 -469 -673 -932 7 -152 31
-251 92 -376 121 -250 342 -414 640 -475 100 -20 305 -16 409 10 116 28 251
92 351 168 109 82 166 98 255 73 57 -16 911 -589 938 -629 53 -80 51 -183 -5
-264 -36 -52 -212 -211 -331 -300 -318 -236 -707 -392 -1101 -442 -185 -24
-571 -17 -747 14 -451 77 -835 254 -1161 535 -404 348 -663 826 -749 1381 -26
167 -26 542 -1 704 62 393 197 721 430 1041 92 127 344 375 474 467 350 248
734 391 1173 436 107 11 469 6 577 -8z"/>
</g>
</svg>
