<?xml version="1.0" encoding="UTF-8" standalone="no"?>
<svg
   xmlns:dc="http://purl.org/dc/elements/1.1/"
   xmlns:cc="http://creativecommons.org/ns#"
   xmlns:rdf="http://www.w3.org/1999/02/22-rdf-syntax-ns#"
   xmlns:svg="http://www.w3.org/2000/svg"
   xmlns="http://www.w3.org/2000/svg"
   xmlns:sodipodi="http://sodipodi.sourceforge.net/DTD/sodipodi-0.dtd"
   xmlns:inkscape="http://www.inkscape.org/namespaces/inkscape"
   viewBox="0 0 108 108"
   version="1.1"
   id="svg27"
   sodipodi:docname="C (2).svg"
   width="108"
   height="108"
   inkscape:version="1.0.2 (e86c870879, 2021-01-15)">
  <metadata
     id="metadata31">
    <rdf:RDF>
      <cc:Work
         rdf:about="">
        <dc:format>image/svg+xml</dc:format>
        <dc:type
           rdf:resource="http://purl.org/dc/dcmitype/StillImage" />
        <dc:title></dc:title>
      </cc:Work>
    </rdf:RDF>
  </metadata>
  <sodipodi:namedview
     pagecolor="#ffffff"
     bordercolor="#666666"
     borderopacity="1"
     objecttolerance="10"
     gridtolerance="10"
     guidetolerance="10"
     inkscape:pageopacity="0"
     inkscape:pageshadow="2"
     inkscape:window-width="1920"
     inkscape:window-height="1043"
     id="namedview29"
     showgrid="false"
     inkscape:zoom="9.721175"
     inkscape:cx="40.060001"
     inkscape:cy="43.525002"
     inkscape:window-x="0"
     inkscape:window-y="0"
     inkscape:window-maximized="1"
     inkscape:current-layer="svg27" />
  <defs
     id="defs4">
    <style
       id="style2">.cls-1{isolation:isolate;}.cls-2{fill:#6aa0f8;}.cls-3{fill:#f5f5f5;}.cls-4{fill:#fff;}</style>
  </defs>
  <g
     id="Capa_2"
     data-name="Capa 2"
     transform="translate(13.919308,10.47716)">
    <g
       id="Capa_1-2"
       data-name="Capa 1">
      <g
         id="Layer_1-2"
         data-name="Layer 1-2">
        <g
           class="cls-1"
           id="g10">
          <g
             class="cls-1"
             id="g8">
            <path
               class="cls-2"
               d="M 44.16,87.05 C 19,87.05 0,68.36 0,43.58 0,18.8 19,0 44.16,0 a 44.12,44.12 0 0 1 33,14.15 11.43,11.43 0 0 1 -2.24,17.33 l -12.71,8.44 a 11.58,11.58 0 0 1 -13.8,-1 l -0.12,-0.1 a 6.05,6.05 0 0 0 -4.13,-1.34 c -3.83,0 -6.21,2.35 -6.21,6.12 0,3.77 2.38,6.11 6.21,6.11 a 6.05,6.05 0 0 0 4.13,-1.34 l 0.12,-0.1 a 11.58,11.58 0 0 1 13.8,-1 l 12.72,8.39 A 11.57,11.57 0 0 1 80,64 11.34,11.34 0 0 1 77,73.1 C 68.79,82.06 57.09,87.05 44.16,87.05 Z m 0,-71 C 28.11,16 16,27.85 16,43.58 16,59.31 28.11,71.05 44.16,71.05 a 29,29 0 0 0 17.11,-5.28 l -5.13,-3.38 a 22.36,22.36 0 0 1 -12,3.3 C 31.5,65.69 22,56.18 22,43.58 22,30.98 31.5,21.46 44.16,21.46 a 22.35,22.35 0 0 1 12,3.29 l 5.11,-3.41 A 28.88,28.88 0 0 0 44.16,16 Z m 21.16,46.13 v 0.06 z m 0,-37.2 0.06,0.06 z"
               id="path6" />
          </g>
        </g>
        <g
           class="cls-1"
           id="g16">
          <g
             class="cls-1"
             id="g14">
            <path
               class="cls-3"
               d="m 53.57,54.36 a 3.57,3.57 0 0 1 4.32,-0.4 l 12.64,8.34 a 3.52,3.52 0 0 1 0.68,5.29 36.15,36.15 0 0 1 -27,11.46 C 23.58,79.05 8,63.77 8,43.58 8,23.39 23.58,8 44.16,8 a 36.23,36.23 0 0 1 27.05,11.56 3.41,3.41 0 0 1 -0.68,5.2 L 57.89,33.19 A 3.58,3.58 0 0 1 53.57,32.8 13.93,13.93 0 0 0 44.16,29.46 C 35.93,29.46 30,35.34 30,43.58 c 0,8.24 6,14.11 14.21,14.11 a 14,14 0 0 0 9.36,-3.33 z"
               id="path12" />
          </g>
        </g>
        <g
           class="cls-1"
           id="g22">
          <g
             class="cls-1"
             id="g20">
            <path
               class="cls-4"
               d="m 53.57,54.36 a 3.57,3.57 0 0 1 4.32,-0.4 l 12.64,8.34 a 3.52,3.52 0 0 1 0.68,5.29 36.15,36.15 0 0 1 -27,11.46 C 23.58,79.05 8,63.77 8,43.58 8,23.39 23.58,8 44.16,8 a 36.23,36.23 0 0 1 27.05,11.56 3.41,3.41 0 0 1 -0.68,5.2 L 57.89,33.19 A 3.58,3.58 0 0 1 53.57,32.8 13.93,13.93 0 0 0 44.16,29.46 C 35.93,29.46 30,35.34 30,43.58 c 0,8.24 6,14.11 14.21,14.11 a 14,14 0 0 0 9.36,-3.33 z"
               id="path18" />
          </g>
        </g>
      </g>
    </g>
  </g>
</svg>
