<?xml version="1.0" encoding="UTF-8" standalone="no"?>
<svg
   xmlns:dc="http://purl.org/dc/elements/1.1/"
   xmlns:cc="http://creativecommons.org/ns#"
   xmlns:rdf="http://www.w3.org/1999/02/22-rdf-syntax-ns#"
   xmlns:svg="http://www.w3.org/2000/svg"
   xmlns="http://www.w3.org/2000/svg"
   xmlns:sodipodi="http://sodipodi.sourceforge.net/DTD/sodipodi-0.dtd"
   xmlns:inkscape="http://www.inkscape.org/namespaces/inkscape"
   viewBox="0 0 108 108"
   version="1.1"
   id="svg116"
   sodipodi:docname="M (2).svg"
   width="108"
   height="108"
   inkscape:version="1.0.2 (e86c870879, 2021-01-15)">
  <metadata
     id="metadata120">
    <rdf:RDF>
      <cc:Work
         rdf:about="">
        <dc:format>image/svg+xml</dc:format>
        <dc:type
           rdf:resource="http://purl.org/dc/dcmitype/StillImage" />
        <dc:title></dc:title>
      </cc:Work>
    </rdf:RDF>
  </metadata>
  <sodipodi:namedview
     pagecolor="#ffffff"
     bordercolor="#666666"
     borderopacity="1"
     objecttolerance="10"
     gridtolerance="10"
     guidetolerance="10"
     inkscape:pageopacity="0"
     inkscape:pageshadow="2"
     inkscape:window-width="1920"
     inkscape:window-height="1043"
     id="namedview118"
     showgrid="false"
     inkscape:zoom="10.001516"
     inkscape:cx="48.380001"
     inkscape:cy="42.305"
     inkscape:window-x="0"
     inkscape:window-y="0"
     inkscape:window-maximized="1"
     inkscape:current-layer="svg116" />
  <defs
     id="defs93">
    <style
       id="style91">.cls-1{isolation:isolate;}.cls-2{fill:#6aa0f8;}.cls-3{fill:#f5f5f5;}.cls-4{fill:#fff;}</style>
  </defs>
  <g
     id="Capa_2"
     data-name="Capa 2"
     transform="translate(5.6199674,11.695192)">
    <g
       id="Capa_1-2"
       data-name="Capa 1">
      <g
         id="Layer_1-2"
         data-name="Layer 1-2">
        <g
           class="cls-1"
           id="g99">
          <g
             class="cls-1"
             id="g97">
            <path
               class="cls-2"
               d="M 84.45,84.61 H 71.12 A 12.38,12.38 0 0 1 58.8,72.2 v -2 A 11.45,11.45 0 0 1 49.46,75 H 47.3 a 11.36,11.36 0 0 1 -9.25,-4.79 v 2 A 12.43,12.43 0 0 1 25.64,84.61 H 12.41 A 12.43,12.43 0 0 1 0,72.2 V 12.31 A 12.37,12.37 0 0 1 12.41,0 H 28.78 A 13,13 0 0 1 40.29,6.77 L 48.4,21.05 56.58,6.76 A 13,13 0 0 1 68.08,0 H 84.45 A 12.32,12.32 0 0 1 96.76,12.31 V 72.2 A 12.37,12.37 0 0 1 84.45,84.61 Z m -9.65,-16 h 6 V 16 h -6 z m -58.8,0 h 6.05 V 16 H 16 Z M 25.08,16 48.43,56.3 71.78,16 H 69.72 L 48.36,53.36 27.13,16 Z"
               id="path95" />
          </g>
        </g>
        <g
           class="cls-1"
           id="g105">
          <g
             class="cls-1"
             id="g103">
            <path
               class="cls-3"
               d="m 68.08,8 h 16.37 a 4.28,4.28 0 0 1 4.31,4.31 V 72.2 a 4.31,4.31 0 0 1 -4.31,4.41 H 71.12 A 4.37,4.37 0 0 1 66.8,72.2 V 40.54 L 52.5,65.24 A 3.48,3.48 0 0 1 49.5,67 H 47.3 A 3.43,3.43 0 0 1 44.36,65.24 L 30.05,40.54 V 72.2 a 4.39,4.39 0 0 1 -4.41,4.41 H 12.41 A 4.39,4.39 0 0 1 8,72.2 V 12.31 A 4.37,4.37 0 0 1 12.41,8 h 16.37 a 5.08,5.08 0 0 1 4.51,2.65 L 48.38,37.21 63.57,10.65 A 5.07,5.07 0 0 1 68.08,8 Z"
               id="path101" />
          </g>
        </g>
        <g
           class="cls-1"
           id="g111">
          <g
             class="cls-1"
             id="g109">
            <path
               class="cls-4"
               d="m 68.08,8 h 16.37 a 4.28,4.28 0 0 1 4.31,4.31 V 72.2 a 4.31,4.31 0 0 1 -4.31,4.41 H 71.12 A 4.37,4.37 0 0 1 66.8,72.2 V 40.54 L 52.5,65.24 A 3.48,3.48 0 0 1 49.5,67 H 47.3 A 3.43,3.43 0 0 1 44.36,65.24 L 30.05,40.54 V 72.2 a 4.39,4.39 0 0 1 -4.41,4.41 H 12.41 A 4.39,4.39 0 0 1 8,72.2 V 12.31 A 4.37,4.37 0 0 1 12.41,8 h 16.37 a 5.08,5.08 0 0 1 4.51,2.65 L 48.38,37.21 63.57,10.65 A 5.07,5.07 0 0 1 68.08,8 Z"
               id="path107" />
          </g>
        </g>
      </g>
    </g>
  </g>
</svg>
