<?xml version="1.0" encoding="UTF-8" standalone="no"?>
<svg
   xmlns:dc="http://purl.org/dc/elements/1.1/"
   xmlns:cc="http://creativecommons.org/ns#"
   xmlns:rdf="http://www.w3.org/1999/02/22-rdf-syntax-ns#"
   xmlns:svg="http://www.w3.org/2000/svg"
   xmlns="http://www.w3.org/2000/svg"
   xmlns:sodipodi="http://sodipodi.sourceforge.net/DTD/sodipodi-0.dtd"
   xmlns:inkscape="http://www.inkscape.org/namespaces/inkscape"
   viewBox="0 0 108 108"
   version="1.1"
   id="svg33"
   sodipodi:docname="Ar (2).svg"
   width="108"
   height="108"
   inkscape:version="1.0.2 (e86c870879, 2021-01-15)">
  <metadata
     id="metadata37">
    <rdf:RDF>
      <cc:Work
         rdf:about="">
        <dc:format>image/svg+xml</dc:format>
        <dc:type
           rdf:resource="http://purl.org/dc/dcmitype/StillImage" />
        <dc:title></dc:title>
      </cc:Work>
    </rdf:RDF>
  </metadata>
  <sodipodi:namedview
     pagecolor="#ffffff"
     bordercolor="#666666"
     borderopacity="1"
     objecttolerance="10"
     gridtolerance="10"
     guidetolerance="10"
     inkscape:pageopacity="0"
     inkscape:pageshadow="2"
     inkscape:window-width="1920"
     inkscape:window-height="1016"
     id="namedview35"
     showgrid="false"
     inkscape:zoom="3.4258231"
     inkscape:cx="10.059422"
     inkscape:cy="75.8828"
     inkscape:window-x="1920"
     inkscape:window-y="27"
     inkscape:window-maximized="1"
     inkscape:current-layer="svg33" />
  <defs
     id="defs4">
    <style
       id="style2">.cls-1{isolation:isolate;}.cls-2{fill:#6aa0f8;}.cls-3{fill:#f5f5f5;}.cls-4{fill:#fff;}</style>
  </defs>
  <g
     id="Capa_2"
     data-name="Capa 2"
     transform="translate(0.7853847,11.694949)">
    <g
       id="Capa_1-2"
       data-name="Capa 1">
      <g
         id="Layer_1-2"
         data-name="Layer 1-2">
        <g
           class="cls-1"
           id="g12">
          <g
             class="cls-1"
             id="g10">
            <path
               class="cls-2"
               d="M 74.53,84.61 H 59 A 12.39,12.39 0 0 1 47.12,75.67 L 46.61,74 h -7.27 l -0.4,1.43 A 12.29,12.29 0 0 1 27,84.61 H 11.52 A 11.51,11.51 0 0 1 0.61,69.43 L 20.9,8.68 A 13.46,13.46 0 0 1 33.37,0 H 52.58 A 13.4,13.4 0 0 1 65.17,9 L 85.34,69.43 A 11.46,11.46 0 0 1 74.53,84.61 Z m -12.82,-16 H 68.2 L 50.64,16 H 47.18 L 59,58.73 v 0 z m -44,0 H 24.2 L 27,58.73 v 0 L 38.77,16 h -3.46 z"
               id="path6" />
            <path
               class="cls-2"
               d="M 80.11,84.61 H 67.67 A 11.55,11.55 0 0 1 56.14,73.08 V 30.44 A 11.54,11.54 0 0 1 67.67,18.92 h 12.44 a 11.31,11.31 0 0 1 6.41,2 24.57,24.57 0 0 1 7,-2.69 l 0.27,-0.05 a 10.77,10.77 0 0 1 8.86,2.35 10.5,10.5 0 0 1 3.77,8.07 v 14.8 a 10.64,10.64 0 0 1 -11.63,10.5 8.31,8.31 0 0 0 -2.87,0.16 20.07,20.07 0 0 0 -0.37,4.71 V 73.08 A 11.5,11.5 0 0 1 80.11,84.61 Z m -8,-16 h 3.41 V 34.92 h -3.38 z"
               id="path8" />
          </g>
        </g>
        <g
           class="cls-1"
           id="g20">
          <g
             class="cls-1"
             id="g18">
            <path
               class="cls-3"
               d="M 54.74,73.37 52.68,66 H 33.27 l -2.06,7.35 A 4.3,4.3 0 0 1 27,76.61 H 11.52 A 3.52,3.52 0 0 1 8.18,72 L 28.37,11.53 a 5.42,5.42 0 0 1 5,-3.53 h 19.21 a 5.32,5.32 0 0 1 5,3.53 L 77.77,72 a 3.46,3.46 0 0 1 -3.24,4.61 H 59 A 4.38,4.38 0 0 1 54.74,73.37 Z M 48.46,50.73 43,30.84 37.49,50.73 Z"
               id="path14" />
            <path
               class="cls-3"
               d="m 95.21,26 a 2.69,2.69 0 0 1 3.23,2.55 v 14.8 A 2.64,2.64 0 0 1 95.5,45.9 c -11.76,-0.88 -12,7 -12,12.84 v 14.34 a 3.5,3.5 0 0 1 -3.44,3.53 H 67.67 A 3.52,3.52 0 0 1 64.14,73.08 V 30.44 a 3.51,3.51 0 0 1 3.53,-3.52 h 12.44 a 3.49,3.49 0 0 1 3.44,3.52 v 4.22 A 18.48,18.48 0 0 1 95.21,26 Z"
               id="path16" />
          </g>
        </g>
        <g
           class="cls-1"
           id="g28">
          <g
             class="cls-1"
             id="g26">
            <path
               class="cls-4"
               d="M 54.74,73.37 52.68,66 H 33.27 l -2.06,7.35 A 4.3,4.3 0 0 1 27,76.61 H 11.52 A 3.52,3.52 0 0 1 8.18,72 L 28.37,11.53 a 5.42,5.42 0 0 1 5,-3.53 h 19.21 a 5.32,5.32 0 0 1 5,3.53 L 77.77,72 a 3.46,3.46 0 0 1 -3.24,4.61 H 59 A 4.38,4.38 0 0 1 54.74,73.37 Z M 48.46,50.73 43,30.84 37.49,50.73 Z"
               id="path22" />
            <path
               class="cls-4"
               d="m 95.21,26 a 2.69,2.69 0 0 1 3.23,2.55 v 14.8 A 2.64,2.64 0 0 1 95.5,45.9 c -11.76,-0.88 -12,7 -12,12.84 v 14.34 a 3.5,3.5 0 0 1 -3.44,3.53 H 67.67 A 3.52,3.52 0 0 1 64.14,73.08 V 30.44 a 3.51,3.51 0 0 1 3.53,-3.52 h 12.44 a 3.49,3.49 0 0 1 3.44,3.52 v 4.22 A 18.48,18.48 0 0 1 95.21,26 Z"
               id="path24" />
          </g>
        </g>
      </g>
    </g>
  </g>
</svg>
