<?xml version="1.0" encoding="UTF-8" standalone="no"?>
<svg
   xmlns:dc="http://purl.org/dc/elements/1.1/"
   xmlns:cc="http://creativecommons.org/ns#"
   xmlns:rdf="http://www.w3.org/1999/02/22-rdf-syntax-ns#"
   xmlns:svg="http://www.w3.org/2000/svg"
   xmlns="http://www.w3.org/2000/svg"
   xmlns:sodipodi="http://sodipodi.sourceforge.net/DTD/sodipodi-0.dtd"
   xmlns:inkscape="http://www.inkscape.org/namespaces/inkscape"
   viewBox="0 0 108 108"
   version="1.1"
   id="svg85"
   sodipodi:docname="G (2).svg"
   width="108"
   height="108"
   inkscape:version="1.0.2 (e86c870879, 2021-01-15)">
  <metadata
     id="metadata89">
    <rdf:RDF>
      <cc:Work
         rdf:about="">
        <dc:format>image/svg+xml</dc:format>
        <dc:type
           rdf:resource="http://purl.org/dc/dcmitype/StillImage" />
        <dc:title></dc:title>
      </cc:Work>
    </rdf:RDF>
  </metadata>
  <sodipodi:namedview
     pagecolor="#ffffff"
     bordercolor="#666666"
     borderopacity="1"
     objecttolerance="10"
     gridtolerance="10"
     guidetolerance="10"
     inkscape:pageopacity="0"
     inkscape:pageshadow="2"
     inkscape:window-width="1920"
     inkscape:window-height="1043"
     id="namedview87"
     showgrid="false"
     inkscape:zoom="9.721175"
     inkscape:cx="42.939999"
     inkscape:cy="43.525002"
     inkscape:window-x="0"
     inkscape:window-y="0"
     inkscape:window-maximized="1"
     inkscape:current-layer="svg85" />
  <defs
     id="defs62">
    <style
       id="style60">.cls-1{isolation:isolate;}.cls-2{fill:#6aa0f8;}.cls-3{fill:#f5f5f5;}.cls-4{fill:#fff;}</style>
  </defs>
  <g
     id="Capa_2"
     data-name="Capa 2"
     transform="translate(11.035,10.474142)">
    <g
       id="Capa_1-2"
       data-name="Capa 1">
      <g
         id="Layer_1-2"
         data-name="Layer 1-2">
        <g
           class="cls-1"
           id="g68">
          <g
             class="cls-1"
             id="g66">
            <path
               class="cls-2"
               d="M 44.16,87.05 C 19,87.05 0,68.36 0,43.58 0,18.8 19,0 44.16,0 a 44.33,44.33 0 0 1 33,14.16 11.43,11.43 0 0 1 -0.91,16.33 12.35,12.35 0 0 1 9.68,12 V 74.35 A 11.54,11.54 0 0 1 74.35,85.88 H 70.72 A 11.37,11.37 0 0 1 62.9,82.77 40.46,40.46 0 0 1 44.16,87.05 Z m 0,-71 C 28.11,16 16,27.85 16,43.58 c 0,15.73 12.11,27.47 28.16,27.47 6.87,0 12.31,-2 16.2,-6.07 l 9.52,-9.89 v -8.9 h -1 L 63.7,56 C 61.64,60 56.36,66.57 44.16,66.57 31.5,66.57 22,56.69 22,43.58 22,31 31.5,21.46 44.16,21.46 a 22.73,22.73 0 0 1 12,3.28 l 5.13,-3.42 A 28.82,28.82 0 0 0 44.16,16 Z"
               id="path64" />
          </g>
        </g>
        <g
           class="cls-1"
           id="g74">
          <g
             class="cls-1"
             id="g72">
            <path
               class="cls-3"
               d="m 46.71,38.19 h 26.76 a 4.37,4.37 0 0 1 4.41,4.31 v 31.85 a 3.52,3.52 0 0 1 -3.53,3.53 h -3.63 a 3.45,3.45 0 0 1 -3.33,-2.65 l -1.27,-4.7 c -5.1,5.29 -12.45,8.52 -22,8.52 C 23.58,79.05 8,63.77 8,43.58 8,23.39 23.58,8 44.16,8 a 36.07,36.07 0 0 1 27.05,11.56 3.42,3.42 0 0 1 -0.68,5.2 L 57.89,33.19 A 3.42,3.42 0 0 1 53.67,32.8 14.39,14.39 0 0 0 44.16,29.46 C 36,29.46 30,35.34 30,43.58 c 0,8.72 6.08,15 14.21,15 5.88,0 10.2,-2 12.45,-6.27 h -9.9 A 4.28,4.28 0 0 1 42.4,48 v -5.5 a 4.35,4.35 0 0 1 4.31,-4.31 z"
               id="path70" />
          </g>
        </g>
        <g
           class="cls-1"
           id="g80">
          <g
             class="cls-1"
             id="g78">
            <path
               class="cls-4"
               d="m 46.71,38.19 h 26.76 a 4.37,4.37 0 0 1 4.41,4.31 v 31.85 a 3.52,3.52 0 0 1 -3.53,3.53 h -3.63 a 3.45,3.45 0 0 1 -3.33,-2.65 l -1.27,-4.7 c -5.1,5.29 -12.45,8.52 -22,8.52 C 23.58,79.05 8,63.77 8,43.58 8,23.39 23.58,8 44.16,8 a 36.07,36.07 0 0 1 27.05,11.56 3.42,3.42 0 0 1 -0.68,5.2 L 57.89,33.19 A 3.42,3.42 0 0 1 53.67,32.8 14.39,14.39 0 0 0 44.16,29.46 C 36,29.46 30,35.34 30,43.58 c 0,8.72 6.08,15 14.21,15 5.88,0 10.2,-2 12.45,-6.27 h -9.9 A 4.28,4.28 0 0 1 42.4,48 v -5.5 a 4.35,4.35 0 0 1 4.31,-4.31 z"
               id="path76" />
          </g>
        </g>
      </g>
    </g>
  </g>
</svg>
