<?xml version="1.0" encoding="UTF-8" standalone="no"?>
<svg
   xmlns:dc="http://purl.org/dc/elements/1.1/"
   xmlns:cc="http://creativecommons.org/ns#"
   xmlns:rdf="http://www.w3.org/1999/02/22-rdf-syntax-ns#"
   xmlns:svg="http://www.w3.org/2000/svg"
   xmlns="http://www.w3.org/2000/svg"
   xmlns:sodipodi="http://sodipodi.sourceforge.net/DTD/sodipodi-0.dtd"
   xmlns:inkscape="http://www.inkscape.org/namespaces/inkscape"
   viewBox="0 0 108 108"
   version="1.1"
   id="svg147"
   sodipodi:docname="N (2).svg"
   width="108"
   height="108"
   inkscape:version="1.0.2 (e86c870879, 2021-01-15)">
  <metadata
     id="metadata151">
    <rdf:RDF>
      <cc:Work
         rdf:about="">
        <dc:format>image/svg+xml</dc:format>
        <dc:type
           rdf:resource="http://purl.org/dc/dcmitype/StillImage" />
        <dc:title></dc:title>
      </cc:Work>
    </rdf:RDF>
  </metadata>
  <sodipodi:namedview
     pagecolor="#ffffff"
     bordercolor="#666666"
     borderopacity="1"
     objecttolerance="10"
     gridtolerance="10"
     guidetolerance="10"
     inkscape:pageopacity="0"
     inkscape:pageshadow="2"
     inkscape:window-width="1920"
     inkscape:window-height="1016"
     id="namedview149"
     showgrid="false"
     inkscape:zoom="4.8448454"
     inkscape:cx="1.2817427"
     inkscape:cy="54.261789"
     inkscape:window-x="1920"
     inkscape:window-y="27"
     inkscape:window-maximized="1"
     inkscape:current-layer="svg147" />
  <defs
     id="defs124">
    <style
       id="style122">.cls-1{isolation:isolate;}.cls-2{fill:#6aa0f8;}.cls-3{fill:#f5f5f5;}.cls-4{fill:#fff;}</style>
  </defs>
  <g
     id="Capa_2"
     data-name="Capa 2"
     transform="translate(14.245033,11.695033)">
    <g
       id="Capa_1-2"
       data-name="Capa 1">
      <g
         id="Layer_1-2"
         data-name="Layer 1-2">
        <g
           class="cls-1"
           id="g130">
          <g
             class="cls-1"
             id="g128">
            <path
               class="cls-2"
               d="M 67.1,84.61 H 54.46 a 13.32,13.32 0 0 1 -11.07,-6 L 43.25,78.39 38.05,70 v 2.2 A 12.43,12.43 0 0 1 25.64,84.61 H 12.31 A 12.37,12.37 0 0 1 0,72.2 V 12.31 A 12.32,12.32 0 0 1 12.31,0 H 25 a 13.13,13.13 0 0 1 11.15,6.21 l 5.31,8.52 V 12.31 A 12.32,12.32 0 0 1 53.77,0 H 67.1 A 12.37,12.37 0 0 1 79.51,12.31 V 72.2 A 12.43,12.43 0 0 1 67.1,84.61 Z m -9.64,-16 h 6 V 16 h -6 z m -1.44,0 h 0.15 L 23.44,16.06 Z m -40,0 h 6.05 V 16 H 16 Z"
               id="path126" />
          </g>
        </g>
        <g
           class="cls-1"
           id="g136">
          <g
             class="cls-1"
             id="g134">
            <path
               class="cls-3"
               d="M 53.77,8 H 67.1 a 4.37,4.37 0 0 1 4.41,4.31 V 72.2 A 4.39,4.39 0 0 1 67.1,76.61 H 54.46 A 5.45,5.45 0 0 1 50,74.16 L 30,41.91 V 72.2 a 4.39,4.39 0 0 1 -4.41,4.41 H 12.31 A 4.31,4.31 0 0 1 8,72.2 V 12.31 A 4.28,4.28 0 0 1 12.31,8 H 25 a 5.17,5.17 0 0 1 4.41,2.45 L 49.46,42.7 V 12.31 A 4.28,4.28 0 0 1 53.77,8 Z"
               id="path132" />
          </g>
        </g>
        <g
           class="cls-1"
           id="g142">
          <g
             class="cls-1"
             id="g140">
            <path
               class="cls-4"
               d="M 53.77,8 H 67.1 a 4.37,4.37 0 0 1 4.41,4.31 V 72.2 A 4.39,4.39 0 0 1 67.1,76.61 H 54.46 A 5.45,5.45 0 0 1 50,74.16 L 30,41.91 V 72.2 a 4.39,4.39 0 0 1 -4.41,4.41 H 12.31 A 4.31,4.31 0 0 1 8,72.2 V 12.31 A 4.28,4.28 0 0 1 12.31,8 H 25 a 5.17,5.17 0 0 1 4.41,2.45 L 49.46,42.7 V 12.31 A 4.28,4.28 0 0 1 53.77,8 Z"
               id="path138" />
          </g>
        </g>
      </g>
    </g>
  </g>
</svg>
