<?xml version="1.0" encoding="UTF-8" standalone="no"?>
<svg
   xmlns:dc="http://purl.org/dc/elements/1.1/"
   xmlns:cc="http://creativecommons.org/ns#"
   xmlns:rdf="http://www.w3.org/1999/02/22-rdf-syntax-ns#"
   xmlns:svg="http://www.w3.org/2000/svg"
   xmlns="http://www.w3.org/2000/svg"
   xmlns:sodipodi="http://sodipodi.sourceforge.net/DTD/sodipodi-0.dtd"
   xmlns:inkscape="http://www.inkscape.org/namespaces/inkscape"
   viewBox="0 0 108 108"
   version="1.1"
   id="svg21"
   sodipodi:docname="A (2).svg"
   width="108"
   height="108"
   inkscape:version="1.0.2 (e86c870879, 2021-01-15)">
  <metadata
     id="metadata25">
    <rdf:RDF>
      <cc:Work
         rdf:about="">
        <dc:format>image/svg+xml</dc:format>
        <dc:type
           rdf:resource="http://purl.org/dc/dcmitype/StillImage" />
        <dc:title></dc:title>
      </cc:Work>
    </rdf:RDF>
  </metadata>
  <sodipodi:namedview
     pagecolor="#ffffff"
     bordercolor="#666666"
     borderopacity="1"
     objecttolerance="10"
     gridtolerance="10"
     guidetolerance="10"
     inkscape:pageopacity="0"
     inkscape:pageshadow="2"
     inkscape:window-width="1920"
     inkscape:window-height="1016"
     id="namedview23"
     showgrid="false"
     inkscape:zoom="4.8448454"
     inkscape:cx="45.878596"
     inkscape:cy="55.047699"
     inkscape:window-x="1920"
     inkscape:window-y="27"
     inkscape:window-maximized="1"
     inkscape:current-layer="svg21" />
  <defs
     id="defs4">
    <style
       id="style2">.cls-1{isolation:isolate;}.cls-2{fill:#6aa0f8;}.cls-3{fill:#fff;}</style>
  </defs>
  <g
     id="Capa_2"
     data-name="Capa 2"
     transform="translate(11.019134,11.694949)">
    <g
       id="Capa_1-2"
       data-name="Capa 1">
      <g
         id="Layer_1-2"
         data-name="Layer 1-2">
        <g
           class="cls-1"
           id="g10">
          <g
             class="cls-1"
             id="g8">
            <path
               class="cls-2"
               d="M 74.53,84.61 H 59 A 12.38,12.38 0 0 1 47.12,75.67 L 46.61,74 h -7.27 l -0.4,1.43 A 12.29,12.29 0 0 1 27,84.61 H 11.52 A 11.56,11.56 0 0 1 2.12,79.74 11.43,11.43 0 0 1 0.61,69.43 L 20.9,8.68 A 13.46,13.46 0 0 1 33.37,0 H 52.58 A 13.39,13.39 0 0 1 65.17,9 L 85.34,69.43 A 11.46,11.46 0 0 1 74.53,84.61 Z m -12.82,-16 H 68.2 L 50.64,16 H 47.18 L 59,58.73 v 0 z m -44,0 H 24.2 L 27,58.73 v 0 L 38.77,16 h -3.46 z"
               id="path6" />
          </g>
        </g>
        <g
           class="cls-1"
           id="g16">
          <g
             class="cls-1"
             id="g14">
            <path
               class="cls-3"
               d="M 54.74,73.37 52.68,66 H 33.27 l -2.06,7.35 A 4.3,4.3 0 0 1 27,76.61 H 11.52 A 3.52,3.52 0 0 1 8.18,72 L 28.37,11.53 a 5.42,5.42 0 0 1 5,-3.53 h 19.21 a 5.32,5.32 0 0 1 5,3.53 L 77.77,72 a 3.46,3.46 0 0 1 -3.24,4.61 H 59 A 4.38,4.38 0 0 1 54.74,73.37 Z M 48.46,50.73 43,30.84 37.49,50.73 Z"
               id="path12" />
          </g>
        </g>
      </g>
    </g>
  </g>
</svg>
