<svg xmlns="http://www.w3.org/2000/svg" id="logo_fansubscat" class="main-logo" data-name="Logo Fansubs.cat" width="660" height="185" version="1.1"><defs id="defs4"><style id="style2">.cls-3{fill:#6fe2a8;stroke:#6aa0f8;stroke-linecap:round;stroke-linejoin:round;stroke-width:12px;fill-rule:evenodd}</style></defs><g aria-label="Fansubs" transform="matrix(.58 0 0 .58 328 121.8)" id="Fansubs" style="font-weight:500;font-size:300px;font-family:'MADE Tommy Soft';text-anchor:middle;fill:#f5f5f5"><path d="M-436.406-183v-16.2c0-6-4.8-10.8-10.8-10.8h-101.4c-6 0-10.8 4.8-10.8 10.8v188.4c0 6 4.8 10.8 10.8 10.8h19.2c6 0 10.8-4.8 10.8-10.8v-71.7h62.7c6 0 10.8-4.8 10.8-10.8v-16.2c0-6-4.8-10.8-10.8-10.8h-62.7v-51.9h71.4c6 0 10.8-4.8 10.8-10.8z" id="path843"/><path d="M-297.206-141.3v7.2c-9.6-12.6-24.9-21.6-48.6-21.6-47.1 0-74.1 39.9-74.1 79.8 0 39.6 27 79.5 74.1 79.5 23.7 0 39-9 48.6-21.6v7.2c0 6 4.8 10.8 10.8 10.8h16.5c6 0 10.8-4.8 10.8-10.8v-130.5c0-6-4.8-10.8-10.8-10.8h-16.5c-6 0-10.8 4.8-10.8 10.8zm-42.6 108.6c-26.1 0-41.1-20.1-41.1-43.2 0-23.4 15-43.2 41.1-43.2s41.1 19.5 41.1 43.2c0 23.4-15 43.2-41.1 43.2z" id="path845"/><path d="M-140.62-155.7c-22.2 0-36 9.9-44.4 22.2v-7.8c0-6-4.8-10.8-10.5-10.8h-16.8c-5.7 0-10.5 4.8-10.5 10.8v130.5c0 6 4.8 10.8 10.5 10.8h16.8c5.7 0 10.5-4.8 10.5-10.8v-73.8c0-17.7 9.9-34.2 32.4-34.2 21.6 0 29.7 14.7 29.7 34.2v73.8c0 6 4.8 10.8 10.8 10.8h16.5c6 0 10.8-4.8 10.8-10.8v-81.6c0-32.4-17.4-63.3-55.8-63.3z" id="path847"/><path d="M13.903-90.9c-12-2.7-32.4-3.9-32.4-17.4 0-11.4 11.4-15.3 22.5-15.3s18 4.5 21.6 10.2c1.8 3 5.4 4.5 8.7 3.6l19.5-4.8c4.8-1.2 7.5-6.6 5.4-11.1-9.6-20.1-32.1-30-55.2-30-35.4 0-59.7 18.9-59.7 47.7 0 25.8 15 40.2 44.4 46.2 18 3.6 39.9 3.3 39.9 17.4 0 10.2-9 16.2-24.9 16.2-15.9 0-23.7-5.4-27-10.8-2.1-3.3-5.7-4.8-9.3-3.6l-21.3 6.6c-5.1 1.5-7.2 7.2-4.8 11.4 10.8 19.5 36.3 28.2 61.8 28.2 42.9 0 64.5-20.7 64.5-50.4 0-25.8-16.2-36-53.7-44.1z" id="path849"/><path d="M203.4-152.1c-5.7 0-10.5 4.8-10.5 10.8v73.8c0 17.7-9.9 34.2-32.4 34.2-21.3 0-29.7-14.7-29.7-34.2v-73.8c0-6-4.8-10.8-10.5-10.8h-16.8c-5.7 0-10.5 4.8-10.5 10.8v81.9c0 32.1 17.4 63 55.8 63 21.9 0 35.7-9.9 44.1-22.2v7.8c0 6 4.8 10.8 10.5 10.8h16.8c6 0 10.8-4.8 10.8-10.8v-130.5c0-6-4.8-10.8-10.8-10.8z" id="path851"/><path d="M353.723-155.7c-23.7 0-39 9-48.6 21.6v-65.1c0-6-4.8-10.8-10.8-10.8h-16.5c-6 0-10.8 4.8-10.8 10.8v188.4c0 6 4.8 10.8 10.8 10.8h16.5c6 0 10.8-4.8 10.8-10.8V-18c9.6 12.6 24.9 21.6 48.6 21.6 47.1 0 74.1-39.9 74.1-79.5 0-39.9-27-79.8-74.1-79.8zm-6 123c-26.1 0-41.1-19.8-41.1-43.2 0-23.7 15-43.2 41.1-43.2s41.1 19.8 41.1 43.2c0 23.1-15 43.2-41.1 43.2z" id="path853"/><path d="M517.81-90.9c-12-2.7-32.4-3.9-32.4-17.4 0-11.4 11.4-15.3 22.5-15.3s18 4.5 21.6 10.2c1.8 3 5.4 4.5 8.7 3.6l19.5-4.8c4.8-1.2 7.5-6.6 5.4-11.1-9.6-20.1-32.1-30-55.2-30-35.4 0-59.7 18.9-59.7 47.7 0 25.8 15 40.2 44.4 46.2 18 3.6 39.9 3.3 39.9 17.4 0 10.2-9 16.2-24.9 16.2-15.9 0-23.7-5.4-27-10.8-2.1-3.3-5.7-4.8-9.3-3.6l-21.3 6.6c-5.1 1.5-7.2 7.2-4.8 11.4 10.8 19.5 36.3 28.2 61.8 28.2 42.9 0 64.5-20.7 64.5-50.4 0-25.8-16.2-36-53.7-44.1z" id="path855"/></g><g aria-label="cat" id="cat" style="font-weight:500;font-size:100px;font-family:'MADE Tommy Soft';text-anchor:middle;fill:#f5f5f5"><path d="M543.086 172.889c-8.5 0-13.8-6.6-13.8-14.4 0-7.9 5.3-14.4 13.8-14.4 4.5 0 8 1.8 10.4 4.6.9 1 2.3 1.3 3.4.6l6.4-3.6c1.4-.9 1.8-2.7.8-4-4.8-6-12.3-9.8-21-9.8-15.2 0-26.8 11.7-26.8 26.6 0 14.8 11.6 26.5 26.8 26.5 8.7 0 16.2-3.8 21-9.8 1-1.3.6-3.1-.8-3.9l-6.4-3.7c-1.1-.7-2.5-.4-3.4.6-2.4 2.9-5.9 4.7-10.4 4.7z" id="path858"/><path d="M610.311 137.031v2.4c-3.2-4.2-8.3-7.2-16.2-7.2-15.7 0-24.7 13.3-24.7 26.6 0 13.2 9 26.5 24.7 26.5 7.9 0 13-3 16.2-7.2v2.4c0 2 1.6 3.6 3.6 3.6h5.5c2 0 3.6-1.6 3.6-3.6v-43.5c0-2-1.6-3.6-3.6-3.6h-5.5c-2 0-3.6 1.6-3.6 3.6zm-14.2 36.2c-8.7 0-13.7-6.7-13.7-14.4 0-7.8 5-14.4 13.7-14.4s13.7 6.5 13.7 14.4c0 7.8-5 14.4-13.7 14.4z" id="path860"/><path d="M659.877 141.531v-4.5c0-2-1.6-3.6-3.6-3.6h-7.2v-7c0-2-1.6-3.6-3.6-3.6h-5.6c-2 0-3.5 1.6-3.5 3.6v7h-4.6c-1.9 0-3.5 1.6-3.5 3.6v4.5c0 1.9 1.6 3.5 3.5 3.5h4.6v20.6c0 10.5 5.2 19.2 18.2 19.2 1.2 0 2.1 0 3-.1 1.3-.2 2.3-1.3 2.3-2.7v-6.6c0-1.5-1.3-2.7-2.8-2.7h-.2c-7 0-7.8-3.4-7.8-9.2v-18.5h7.2c2 0 3.6-1.6 3.6-3.5z" id="path862"/></g><path id="line_1" data-name="line_1" class="cls-3" d="M6 145.763v-1h497v1z"/><path id="line_2" data-name="line_2" class="cls-3" d="M153 178.763v-1h328v1z"/><path id="line_3" data-name="line_3" class="cls-3" d="M503.339 177.263v.5h-.6v-.5z"/></svg>
