<svg xmlns="http://www.w3.org/2000/svg" id="logo_fansubscat" class="main-logo" data-name="Logo Hentai.cat" width="660" height="185" viewBox="0 0 660 185" version="1.1"><defs id="defs4"><style id="style2">.cls-3{fill:#d91883;stroke:#d91883;stroke-linecap:round;stroke-linejoin:round;stroke-width:12px;fill-rule:evenodd}</style></defs><g aria-label="Hentai" transform="matrix(.58 0 0 .58 328 121.8)" id="Hentai" style="font-weight:500;font-size:300px;font-family:'MADE Tommy Soft';text-anchor:middle;fill:#f5f5f5"><path d="m-431.46-199.12v74.34h-87.5v-74.34c0-5.9951-4.8276-10.791-10.56-10.791h-19.612c-5.7328 0-10.56 4.7961-10.56 10.791v188.25c0 5.9951 4.8276 10.791 10.56 10.791h19.612c5.7328 0 10.56-4.7961 10.56-10.791v-76.138h87.5v76.138c0 5.9951 4.8276 10.791 10.862 10.791h19.31c6.0345 0 10.862-4.7961 10.862-10.791v-188.25c0-5.9951-4.8276-10.791-10.862-10.791h-19.31c-6.0345 0-10.862 4.7961-10.862 10.791z"/><path d="m-283.79-156.67c-42.241 0-78.147 32.284-78.147 80.259 0 46.465 33.491 79.957 84.181 79.957 24.44 0 44.957-9.6552 58.233-22.931 3.6207-3.9224 3.0172-9.9569-1.5086-12.672l-17.198-10.259c-3.0172-1.8103-6.6379-1.5086-9.3534 0.90517-6.0345 5.1293-16.293 10.862-30.172 10.862-21.121 0-38.017-10.862-43.448-31.078h103.49c5.7328 0 10.56-4.8276 10.56-10.56 2.1121-54.009-33.19-84.483-76.638-84.483zm-37.414 65.474c4.5259-19.612 19.31-31.379 38.017-31.379 20.517 0 34.095 11.164 38.017 31.379z"/><path d="m-96.959-156.67c-22.328 0-36.207 9.9569-44.655 22.328v-7.8448c0-6.0345-4.8276-10.862-10.56-10.862h-16.897c-5.7328 0-10.56 4.8276-10.56 10.862v131.25c0 6.0345 4.8276 10.862 10.56 10.862h16.897c5.7328 0 10.56-4.8276 10.56-10.862v-74.224c0-17.802 9.9569-34.397 32.586-34.397 21.724 0 29.871 14.784 29.871 34.397v74.224c0 6.0345 4.8276 10.862 10.862 10.862h16.595c6.0345 0 10.862-4.8276 10.862-10.862v-82.069c0-32.586-17.5-63.664-56.121-63.664z"/><path d="m76.023-128.61v-13.578c0-6.0345-4.8276-10.862-10.862-10.862h-21.724v-21.121c0-6.0345-4.8276-10.862-10.862-10.862h-16.897c-6.0345 0-10.56 4.8276-10.56 10.862v21.121h-13.879c-5.7328 0-10.56 4.8276-10.56 10.862v13.578c0 5.7328 4.8276 10.56 10.56 10.56h13.879v62.155c0 31.681 15.69 57.931 54.914 57.931 3.6207 0 6.3362 0 9.0517-0.30172 3.9224-0.60345 6.9397-3.9224 6.9397-8.1465v-19.914c0-4.5259-3.9224-8.1465-8.4483-8.1465h-0.60345c-21.121 0-23.534-10.259-23.534-27.759v-55.819h21.724c6.0345 0 10.862-4.8276 10.862-10.56z"/><path d="m219.36-142.19v7.2414c-9.6552-12.672-25.043-21.724-48.879-21.724-47.371 0-74.526 40.129-74.526 80.259 0 39.828 27.155 79.957 74.526 79.957 23.836 0 39.224-9.0517 48.879-21.724v7.2414c0 6.0345 4.8276 10.862 10.862 10.862h16.595c6.0345 0 10.862-4.8276 10.862-10.862v-131.25c0-6.0345-4.8276-10.862-10.862-10.862h-16.595c-6.0345 0-10.862 4.8276-10.862 10.862zm-42.845 109.22c-26.25 0-41.336-20.216-41.336-43.448 0-23.534 15.086-43.448 41.336-43.448 26.25 0 41.336 19.612 41.336 43.448 0 23.534-15.086 43.448-41.336 43.448z"/><path d="m305.03-0.079926h16.595c6.0345 0 10.862-4.8276 10.862-10.862v-131.25c0-6.0345-4.8276-10.862-10.862-10.862h-16.595c-6.0345 0-10.862 4.8276-10.862 10.862v131.25c0 6.0345 4.8276 10.862 10.862 10.862zm8.1466-168.86c11.466 0 20.517-9.3534 20.517-20.517s-9.0517-20.517-20.517-20.517c-11.164 0-20.216 9.3534-20.216 20.517s9.0517 20.517 20.216 20.517z"/><path d="m544.08-198.79c-1.5041 0.0158-3.0272 0.39482-4.4364 1.1723v0.0387c-4.5094 2.488-6.1036 8.1635-3.6156 12.673l1.8663 3.3825c3.7708 6.7642 4.4706 14.616 2.3325 21.692-8.9411-5.0148-19.243-7.8524-30.245-7.8524-9.4465 0-18.388 2.0991-26.396 5.8699-7.4639 3.4987-4.0815 12.79 4.1988 12.79h6.6474c5.1703 0 9.3299 4.1596 9.3299 9.3299v31.1c0 5.1703 4.1596 9.3299 9.3299 9.3299h28.417c3.5376 0 6.7642 2.0218 8.358 5.1706l4.5488 9.096c3.2266 6.3754 11.934 6.7648 14.305 0.0395 2.2547-6.4143 3.46-13.334 3.46-20.526 0-16.366-6.2978-31.255-16.677-42.373 6.3754-13.334 6.1809-29.272-1.3219-42.762l-1.8655-3.3818c-1.7105-3.1002-4.9275-4.8228-8.2365-4.7879zm-87.468 12.449c-1.3013-0.0111-2.6029-8.2e-4 -3.9041 2e-3 -4.5029 0.0833-8.9233 2.1108-11.936 5.4569-2.8052 3.0732-4.3882 7.2269-4.3225 11.389 0.0376 3.6451 1.3054 7.2723 3.5784 10.126-3.2756 2.959-5.3029 7.2606-5.4531 11.677-0.18361 4.2528 1.3454 8.5507 4.1881 11.722 2.9996 3.3982 7.436 5.494 11.974 5.5859 1.802 0.0325 3.6044-4e-3 5.4068 0.0114 1.9593-0.0139 3.9416 0.0951 5.8722-0.31359 4.0725-0.80128 7.8071-3.1847 10.236-6.5525 2.3074-3.1606 3.4417-7.1514 3.1335-11.053-0.3088-4.2019-2.2851-8.2557-5.4219-11.072 2.7048-3.3947 3.9767-7.8785 3.4774-12.189-0.45592-4.159-2.5548-8.1075-5.7476-10.812-3.0498-2.6096-7.0654-4.0647-11.082-3.977zm-37.084 6.8e-4c-0.1214-4e-3 -0.2431-3e-3 -0.36444 6.7e-4 -1.2267 0.0247-2.3759 0.57056-3.3438 1.293-3.6885 2.4663-7.3928 4.9094-11.067 7.396-1.7641 1.3367-2.5026 3.8445-1.7524 5.9261 0.6591 1.9736 2.5625 3.4656 4.646 3.5921 1.3886 0.11529 2.7741-0.3837 3.867-1.2262 0.84132-0.56255 1.6825-1.1253 2.5238-1.6878v30.012c-2.1766 9e-3 -4.3548-0.0242-6.5305 0.0251-2.2356 0.19377-4.2259 1.9594-4.6748 4.16-0.46402 2.0333 0.39519 4.2984 2.1138 5.4887 1.0667 0.77632 2.4179 1.0686 3.7204 0.98781 7.4625-4e-3 14.926 0.0126 22.388-0.0114 2.2356-0.11597 4.2767-1.81 4.8054-3.9854 0.5621-2.0941-0.30891-4.4872-2.1085-5.7059-1.0614-0.75624-2.3955-1.0382-3.6824-0.95894h-5.3695c-2e-3 -13.421 6e-3 -26.842-8e-3 -40.263-0.0892-2.2916-1.8392-4.4003-4.0811-4.8965-0.35381-0.0876-0.71698-0.13525-1.0812-0.14654zm33.593 10.654c1.432 0.0209 2.8657-0.0269 4.2967 0.0251 1.8412 0.16192 3.584 1.2272 4.5533 2.8032 0.17246 0.26883 0.37402 0.65106 0.50188 0.99084 0.77728 1.9759 0.41849 4.3545-0.95061 5.9861-1.1878 1.4525-3.0764 2.2935-4.9519 2.1905-1.4218-0.0173-2.8476 0.0522-4.2663-0.0524-2.4187-0.30099-4.5335-2.229-5.0438-4.6148-0.45853-1.9913 0.17591-4.1978 1.6567-5.614 1.1091-1.0824 2.6527-1.7184 4.2041-1.7144zm-62.088 0.45402c-0.0527 6.7e-4 -0.10533-8.2e-4 -0.15793 6.7e-4 -2.3558 0.0436-4.4753 2.128-4.5161 4.4918-0.03 2.0453-3e-3 4.0916-0.0129 6.1372v2.5208c-2.995 0.01-5.9922-0.0284-8.9859 0.0319-2.2427 0.22394-4.1348 2.269-4.1684 4.526-0.11012 2.2374 1.594 4.4262 3.8168 4.797 1.0703 0.18721 2.1606 0.0485 3.2398 0.0926h6.0977c0.01 2.9943-0.0279 5.9906 0.0319 8.9836 0.21989 2.2116 2.2087 4.082 4.4296 4.1692 2.5026 0.20006 4.9132-1.9604 4.9823-4.4706 9e-3 -2.3952 6.8e-4 -4.7916 4e-3 -7.1872v-1.495c2.9814-7e-3 5.9645 0.0237 8.9449-0.0281 2.2593-0.20293 4.1752-2.2586 4.2094-4.529 0.11043-2.2381-1.5948-4.4295-3.8199-4.797-1.0693-0.18715-2.1584-0.0492-3.2368-0.0934h-6.0977c-0.01-2.9945 0.0281-5.9912-0.0319-8.9844-0.22708-2.3109-2.3989-4.25-4.7287-4.1661zm64.219 22.202c1.3608-2e-3 2.7208-5e-5 4.0811 0.0288 2.4253 0.19756 4.6094 2.0348 5.2253 4.3886 0.56851 2.0425-0.0411 4.3662-1.5694 5.8433-1.2148 1.2092-2.956 1.8389-4.6627 1.7357-2.5558-0.0128-5.1129 0.0286-7.6678-0.0258-2.3546-0.19763-4.4875-1.9291-5.1661-4.1927-0.63779-2.0272-0.1061-4.3773 1.3803-5.9048 1.1041-1.1646 2.6898-1.8644 4.2967-1.8723 1.3606 9e-3 2.7218 2e-3 4.0826-6.8e-4zm20.52 16.445-36.076 72.112h0.0395c-6.6864 13.412-19.088 23.052-33.705 26.318l-19.359 4.3157c-7.8915 1.7494-13.529 8.7463-13.529 16.832 0 9.5243 7.7362 17.26 17.26 17.26h22.858c54.852 0 104.61-26.473 135.63-68.497l-9.2912-18.582h-29.622c-10.302 0-18.66-8.358-18.66-18.66v-31.1z"/></g><g aria-label="cat" id="cat" style="font-weight:500;font-size:100px;font-family:'MADE Tommy Soft';text-anchor:middle;fill:#f5f5f5"><path d="m543.09 172.89c-8.5 0-13.8-6.6-13.8-14.4 0-7.9 5.3-14.4 13.8-14.4 4.5 0 8 1.8 10.4 4.6 0.9 1 2.3 1.3 3.4 0.6l6.4-3.6c1.4-0.9 1.8-2.7 0.8-4-4.8-6-12.3-9.8-21-9.8-15.2 0-26.8 11.7-26.8 26.6 0 14.8 11.6 26.5 26.8 26.5 8.7 0 16.2-3.8 21-9.8 1-1.3 0.6-3.1-0.8-3.9l-6.4-3.7c-1.1-0.7-2.5-0.4-3.4 0.6-2.4 2.9-5.9 4.7-10.4 4.7z"/><path d="m610.31 137.03v2.4c-3.2-4.2-8.3-7.2-16.2-7.2-15.7 0-24.7 13.3-24.7 26.6 0 13.2 9 26.5 24.7 26.5 7.9 0 13-3 16.2-7.2v2.4c0 2 1.6 3.6 3.6 3.6h5.5c2 0 3.6-1.6 3.6-3.6v-43.5c0-2-1.6-3.6-3.6-3.6h-5.5c-2 0-3.6 1.6-3.6 3.6zm-14.2 36.2c-8.7 0-13.7-6.7-13.7-14.4 0-7.8 5-14.4 13.7-14.4s13.7 6.5 13.7 14.4c0 7.8-5 14.4-13.7 14.4z"/><path d="m659.88 141.53v-4.5c0-2-1.6-3.6-3.6-3.6h-7.2v-7c0-2-1.6-3.6-3.6-3.6h-5.6c-2 0-3.5 1.6-3.5 3.6v7h-4.6c-1.9 0-3.5 1.6-3.5 3.6v4.5c0 1.9 1.6 3.5 3.5 3.5h4.6v20.6c0 10.5 5.2 19.2 18.2 19.2 1.2 0 2.1 0 3-0.1 1.3-0.2 2.3-1.3 2.3-2.7v-6.6c0-1.5-1.3-2.7-2.8-2.7h-0.2c-7 0-7.8-3.4-7.8-9.2v-18.5h7.2c2 0 3.6-1.6 3.6-3.5z"/></g><path id="line_1" data-name="line_1" class="cls-3" d="M6 145.763v-1h497v1z"/><path id="line_2" data-name="line_2" class="cls-3" d="M153 178.763v-1h328v1z"/><path id="line_3" data-name="line_3" class="cls-3" d="M503.339 177.263v.5h-.6v-.5z"/></svg>

