<?xml version="1.0" encoding="UTF-8" standalone="no"?>
<svg
   xmlns:dc="http://purl.org/dc/elements/1.1/"
   xmlns:cc="http://creativecommons.org/ns#"
   xmlns:rdf="http://www.w3.org/1999/02/22-rdf-syntax-ns#"
   xmlns:svg="http://www.w3.org/2000/svg"
   xmlns="http://www.w3.org/2000/svg"
   xmlns:sodipodi="http://sodipodi.sourceforge.net/DTD/sodipodi-0.dtd"
   xmlns:inkscape="http://www.inkscape.org/namespaces/inkscape"
   id="Logo_Fansubs_CLAR"
   data-name="Logo Fansubs CLAR"
   width="660"
   height="185"
   viewBox="0 0 660 185"
   version="1.1"
   sodipodi:docname="logo.svg"
   inkscape:version="1.0.2 (e86c870879, 2021-01-15)">
  <metadata
     id="metadata18">
    <rdf:RDF>
      <cc:Work
         rdf:about="">
        <dc:format>image/svg+xml</dc:format>
        <dc:type
           rdf:resource="http://purl.org/dc/dcmitype/StillImage" />
        <dc:title></dc:title>
      </cc:Work>
    </rdf:RDF>
  </metadata>
  <sodipodi:namedview
     pagecolor="#000000"
     bordercolor="#666666"
     borderopacity="1"
     objecttolerance="10"
     gridtolerance="10"
     guidetolerance="10"
     inkscape:pageopacity="0"
     inkscape:pageshadow="2"
     inkscape:window-width="1920"
     inkscape:window-height="1016"
     id="namedview16"
     showgrid="false"
     inkscape:zoom="1.0045455"
     inkscape:cx="528.5657"
     inkscape:cy="146.94809"
     inkscape:window-x="1920"
     inkscape:window-y="27"
     inkscape:window-maximized="1"
     inkscape:current-layer="Logo_Fansubs_CLAR" />
  <defs
     id="defs4">
    <style
       id="style2">
      .cls-1 {
        font-size: 300px;
      }

      .cls-1, .cls-2 {
        fill: #f5f5f5;
        text-anchor: middle;
        font-family: &quot;MADE Tommy Soft&quot;;
        font-weight: 500;
      }

      .cls-2 {
        font-size: 100px;
      }

      .cls-3 {
        fill: #6fe2a8;
        stroke: #6aa0f8;
        stroke-linecap: round;
        stroke-linejoin: round;
        stroke-width: 12px;
        fill-rule: evenodd;
      }
    </style>
  </defs>
  <g
     aria-label="Fansubs"
     transform="matrix(0.58,0,0,0.58,328,121.8)"
     id="Fansubs"
     style="font-weight:500;font-size:300px;font-family:'MADE Tommy Soft';text-anchor:middle;fill:#f5f5f5"
     class="cls-1">
    <path
       d="m -436.40625,-183 v -16.2 c 0,-6 -4.8,-10.8 -10.8,-10.8 h -101.4 c -6,0 -10.8,4.8 -10.8,10.8 v 188.4 c 0,6 4.8,10.8 10.8,10.8 h 19.2 c 6,0 10.8,-4.8 10.8,-10.8 v -71.7 h 62.7 c 6,0 10.8,-4.8 10.8,-10.8 v -16.2 c 0,-6 -4.8,-10.8 -10.8,-10.8 h -62.7 v -51.9 h 71.4 c 6,0 10.8,-4.8 10.8,-10.8 z"
       id="path843" />
    <path
       d="m -297.20625,-141.3 v 7.2 c -9.6,-12.6 -24.9,-21.6 -48.6,-21.6 -47.1,0 -74.1,39.9 -74.1,79.8 0,39.6 27,79.5 74.1,79.5 23.7,0 39,-9 48.6,-21.6 v 7.2 c 0,6 4.8,10.8 10.8,10.8 h 16.5 c 6,0 10.8,-4.8 10.8,-10.8 v -130.5 c 0,-6 -4.8,-10.8 -10.8,-10.8 h -16.5 c -6,0 -10.8,4.8 -10.8,10.8 z m -42.6,108.6 c -26.1,0 -41.1,-20.1 -41.1,-43.2 0,-23.4 15,-43.2 41.1,-43.2 26.1,0 41.1,19.5 41.1,43.2 0,23.4 -15,43.2 -41.1,43.2 z"
       id="path845" />
    <path
       d="m -140.62031,-155.7 c -22.2,0 -36,9.9 -44.4,22.2 v -7.8 c 0,-6 -4.8,-10.8 -10.5,-10.8 h -16.8 c -5.7,0 -10.5,4.8 -10.5,10.8 v 130.5 c 0,6 4.8,10.8 10.5,10.8 h 16.8 c 5.7,0 10.5,-4.8 10.5,-10.8 v -73.8 c 0,-17.7 9.9,-34.2 32.4,-34.2 21.6,0 29.7,14.7 29.7,34.2 v 73.8 c 0,6 4.8,10.8 10.8,10.8 h 16.499997 c 6,0 10.800001,-4.8 10.800001,-10.8 v -81.6 c 0,-32.4 -17.399998,-63.3 -55.799998,-63.3 z"
       id="path847" />
    <path
       d="m 13.903125,-90.9 c -12,-2.7 -32.4,-3.9 -32.4,-17.4 0,-11.4 11.4,-15.3 22.5,-15.3 11.1,0 18,4.5 21.6,10.2 1.8,3 5.4,4.5 8.7,3.6 l 19.5,-4.8 c 4.8,-1.2 7.5,-6.6 5.4,-11.1 -9.6,-20.1 -32.1,-30 -55.2,-30 -35.4,0 -59.7,18.9 -59.7,47.7 0,25.8 15,40.2 44.4,46.2 18,3.6 39.9,3.3 39.9,17.4 0,10.2 -9,16.2 -24.9,16.2 -15.9,0 -23.7,-5.4 -27,-10.8 -2.1,-3.3 -5.7,-4.8 -9.3,-3.6 l -21.3,6.6 c -5.1,1.5 -7.2,7.2 -4.8,11.4 10.8,19.5 36.3,28.2 61.8,28.2 42.9,0 64.5,-20.7 64.5,-50.4 0,-25.8 -16.2,-36 -53.7,-44.1 z"
       id="path849" />
    <path
       d="m 203.4,-152.1 c -5.7,0 -10.5,4.8 -10.5,10.8 v 73.8 c 0,17.7 -9.9,34.2 -32.4,34.2 -21.3,0 -29.7,-14.7 -29.7,-34.2 v -73.8 c 0,-6 -4.8,-10.8 -10.5,-10.8 h -16.8 c -5.7,0 -10.5,4.8 -10.5,10.8 v 81.9 c 0,32.1 17.4,63 55.8,63 21.9,0 35.7,-9.9 44.1,-22.2 v 7.8 c 0,6 4.8,10.8 10.5,10.8 h 16.8 c 6,0 10.8,-4.8 10.8,-10.8 v -130.5 c 0,-6 -4.8,-10.8 -10.8,-10.8 z"
       id="path851" />
    <path
       d="m 353.72344,-155.7 c -23.7,0 -39,9 -48.6,21.6 v -65.1 c 0,-6 -4.8,-10.8 -10.8,-10.8 h -16.5 c -6,0 -10.8,4.8 -10.8,10.8 v 188.4 c 0,6 4.8,10.8 10.8,10.8 h 16.5 c 6,0 10.8,-4.8 10.8,-10.8 V -18 c 9.6,12.6 24.9,21.6 48.6,21.6 47.1,0 74.1,-39.9 74.1,-79.5 0,-39.9 -27,-79.8 -74.1,-79.8 z m -6,123 c -26.1,0 -41.1,-19.8 -41.1,-43.2 0,-23.7 15,-43.2 41.1,-43.2 26.1,0 41.1,19.8 41.1,43.2 0,23.1 -15,43.2 -41.1,43.2 z"
       id="path853" />
    <path
       d="m 517.80938,-90.9 c -12.00001,-2.7 -32.40001,-3.9 -32.40001,-17.4 0,-11.4 11.4,-15.3 22.5,-15.3 11.1,0 18,4.5 21.6,10.2 1.80001,3 5.4,4.5 8.70001,3.6 l 19.5,-4.8 c 4.79999,-1.2 7.5,-6.6 5.39999,-11.1 -9.6,-20.1 -32.1,-30 -55.2,-30 -35.4,0 -59.69999,18.9 -59.69999,47.7 0,25.8 15,40.2 44.39999,46.2 18,3.6 39.9,3.3 39.9,17.4 0,10.2 -9,16.2 -24.9,16.2 -15.89999,0 -23.7,-5.4 -27,-10.8 -2.1,-3.3 -5.7,-4.8 -9.3,-3.6 l -21.3,6.6 c -5.1,1.5 -7.2,7.2 -4.79999,11.4 10.79999,19.5 36.29999,28.2 61.79999,28.2 42.9,0 64.5,-20.7 64.5,-50.4 0,-25.8 -16.19999,-36 -53.69999,-44.1 z"
       id="path855" />
  </g>
  <g
     aria-label="cat"
     id="cat"
     style="font-weight:500;font-size:100px;font-family:'MADE Tommy Soft';text-anchor:middle;fill:#f5f5f5"
     class="cls-2">
    <path
       d="m 543.08607,172.88878 c -8.5,0 -13.8,-6.6 -13.8,-14.4 0,-7.9 5.3,-14.4 13.8,-14.4 4.5,0 8,1.8 10.4,4.6 0.9,1 2.3,1.3 3.4,0.6 l 6.4,-3.6 c 1.4,-0.9 1.8,-2.7 0.8,-4 -4.8,-6 -12.3,-9.8 -21,-9.8 -15.2,0 -26.8,11.7 -26.8,26.6 0,14.8 11.6,26.5 26.8,26.5 8.7,0 16.2,-3.8 21,-9.8 1,-1.3 0.6,-3.1 -0.8,-3.9 l -6.4,-3.7 c -1.1,-0.7 -2.5,-0.4 -3.4,0.6 -2.4,2.9 -5.9,4.7 -10.4,4.7 z"
       id="path858" />
    <path
       d="m 610.31107,137.031 v 2.4 c -3.2,-4.2 -8.3,-7.2 -16.2,-7.2 -15.7,0 -24.7,13.3 -24.7,26.6 0,13.2 9,26.5 24.7,26.5 7.9,0 13,-3 16.2,-7.2 v 2.4 c 0,2 1.6,3.6 3.6,3.6 h 5.5 c 2,0 3.6,-1.6 3.6,-3.6 v -43.5 c 0,-2 -1.6,-3.6 -3.6,-3.6 h -5.5 c -2,0 -3.6,1.6 -3.6,3.6 z m -14.2,36.2 c -8.7,0 -13.7,-6.7 -13.7,-14.4 0,-7.8 5,-14.4 13.7,-14.4 8.7,0 13.7,6.5 13.7,14.4 0,7.8 -5,14.4 -13.7,14.4 z"
       id="path860" />
    <path
       d="m 659.8767,141.531 v -4.5 c 0,-2 -1.6,-3.6 -3.6,-3.6 h -7.2 v -7 c 0,-2 -1.6,-3.6 -3.6,-3.6 h -5.6 c -2,0 -3.5,1.6 -3.5,3.6 v 7 h -4.6 c -1.9,0 -3.5,1.6 -3.5,3.6 v 4.5 c 0,1.9 1.6,3.5 3.5,3.5 h 4.6 v 20.6 c 0,10.5 5.2,19.2 18.2,19.2 1.2,0 2.1,0 3,-0.1 1.3,-0.2 2.3,-1.3 2.3,-2.7 v -6.6 c 0,-1.5 -1.3,-2.7 -2.8,-2.7 -0.1,0 -0.1,0 -0.2,0 -7,0 -7.8,-3.4 -7.8,-9.2 v -18.5 h 7.2 c 2,0 3.6,-1.6 3.6,-3.5 z"
       id="path862" />
  </g>
  <path
     id="line_1"
     data-name="line_1"
     class="cls-3"
     d="m 6,145.763 v -1 h 497 v 1 z" />
  <path
     id="line_2"
     data-name="line_2"
     class="cls-3"
     d="m 153,178.763 v -1 h 328 v 1 z" />
  <path
     id="line_3"
     data-name="line_3"
     class="cls-3"
     d="m 503.339,177.263 v 0.5 h -0.6 v -0.5 z" />
</svg>
