<?xml version="1.0" encoding="UTF-8" standalone="no"?>
<svg
   xmlns:dc="http://purl.org/dc/elements/1.1/"
   xmlns:cc="http://creativecommons.org/ns#"
   xmlns:rdf="http://www.w3.org/1999/02/22-rdf-syntax-ns#"
   xmlns:svg="http://www.w3.org/2000/svg"
   xmlns="http://www.w3.org/2000/svg"
   xmlns:sodipodi="http://sodipodi.sourceforge.net/DTD/sodipodi-0.dtd"
   xmlns:inkscape="http://www.inkscape.org/namespaces/inkscape"
   id="Logo_Fansubs_CLAR"
   data-name="Logo Fansubs CLAR"
   width="660"
   height="185"
   viewBox="0 0 660 185"
   version="1.1"
   sodipodi:docname="logo_hentai_uncompressed.svg"
   inkscape:version="1.0.2 (e86c870879, 2021-01-15)">
  <metadata
     id="metadata18">
    <rdf:RDF>
      <cc:Work
         rdf:about="">
        <dc:format>image/svg+xml</dc:format>
        <dc:type
           rdf:resource="http://purl.org/dc/dcmitype/StillImage" />
        <dc:title></dc:title>
      </cc:Work>
    </rdf:RDF>
  </metadata>
  <sodipodi:namedview
     pagecolor="#000000"
     bordercolor="#666666"
     borderopacity="1"
     objecttolerance="10"
     gridtolerance="10"
     guidetolerance="10"
     inkscape:pageopacity="0"
     inkscape:pageshadow="2"
     inkscape:window-width="1920"
     inkscape:window-height="1016"
     id="namedview16"
     showgrid="false"
     inkscape:zoom="0.70212808"
     inkscape:cx="358.2715"
     inkscape:cy="-26.170891"
     inkscape:window-x="0"
     inkscape:window-y="27"
     inkscape:window-maximized="1"
     inkscape:current-layer="Logo_Fansubs_CLAR"
     inkscape:document-rotation="0" />
  <defs
     id="defs4">
    <style
       id="style2">
      .cls-1 {
        font-size: 300px;
      }

      .cls-1, .cls-2 {
        fill: #f5f5f5;
        text-anchor: middle;
        font-family: &quot;MADE Tommy Soft&quot;;
        font-weight: 500;
      }

      .cls-2 {
        font-size: 100px;
      }

      .cls-3 {
        fill: #6fe2a8;
        stroke: #6aa0f8;
        stroke-linecap: round;
        stroke-linejoin: round;
        stroke-width: 12px;
        fill-rule: evenodd;
      }
    </style>
  </defs>
  <g
     aria-label="Fansubs"
     transform="matrix(0.58,0,0,0.58,328,121.8)"
     id="Fansubs"
     style="font-weight:500;font-size:300px;font-family:'MADE Tommy Soft';text-anchor:middle;fill:#f5f5f5"
     class="cls-1">
    <path
       d="m -431.45756,-199.11836 v 74.33966 h -87.49996 v -74.33966 c 0,-5.99513 -4.82758,-10.79124 -10.56034,-10.79124 h -19.61206 c -5.73276,0 -10.56034,4.79611 -10.56034,10.79124 v 188.247194 c 0,5.9951334 4.82758,10.79124014 10.56034,10.79124014 h 19.61206 c 5.73276,0 10.56034,-4.79610674 10.56034,-10.79124014 v -76.138195 h 87.49996 v 76.138195 c 0,5.9951334 4.82758,10.79124014 10.86206,10.79124014 h 19.31034 c 6.03448,0 10.86206,-4.79610674 10.86206,-10.79124014 V -199.11836 c 0,-5.99513 -4.82758,-10.79124 -10.86206,-10.79124 h -19.31034 c -6.03448,0 -10.86206,4.79611 -10.86206,10.79124 z"
       style="font-style:normal;font-variant:normal;font-weight:500;font-stretch:normal;font-size:301.724px;line-height:1.25;font-family:'MADE Tommy Soft';-inkscape-font-specification:'MADE Tommy Soft Medium';letter-spacing:0px;word-spacing:0px;stroke-width:0;stroke-miterlimit:4;stroke-dasharray:none"
       id="path859" />
    <path
       d="m -283.79195,-156.67468 c -42.24136,0 -78.14651,32.28447 -78.14651,80.258582 0,46.465496 33.49136,79.9568601 84.18099,79.9568601 24.43965,0 44.95688,-9.6551679 58.23273,-22.9310241 3.62069,-3.922412 3.01724,-9.956892 -1.50862,-12.672408 l -17.19826,-10.258616 c -3.01724,-1.810344 -6.63793,-1.50862 -9.35345,0.905172 -6.03448,5.129308 -16.29309,10.862064 -30.1724,10.862064 -21.12068,0 -38.01722,-10.862064 -43.44825,-31.077572 h 103.49133 c 5.73275,0 10.56034,-4.827584 10.56034,-10.56034 2.11207,-54.008598 -33.18964,-84.482718 -76.6379,-84.482718 z m -37.41377,65.474106 c 4.52586,-19.612056 19.31033,-31.379296 38.01722,-31.379296 20.51723,0 34.09481,11.16379 38.01722,31.379296 z"
       style="font-style:normal;font-variant:normal;font-weight:500;font-stretch:normal;font-size:301.724px;line-height:1.25;font-family:'MADE Tommy Soft';-inkscape-font-specification:'MADE Tommy Soft Medium';letter-spacing:0px;word-spacing:0px;stroke-width:0;stroke-miterlimit:4;stroke-dasharray:none"
       id="path861" />
    <path
       d="m -96.958782,-156.67468 c -22.327578,0 -36.206878,9.95689 -44.655148,22.32757 v -7.84482 c 0,-6.03448 -4.82759,-10.86206 -10.56034,-10.86206 h -16.89655 c -5.73275,0 -10.56034,4.82758 -10.56034,10.86206 v 131.24994 c 0,6.0344802 4.82759,10.86206414 10.56034,10.86206414 h 16.89655 c 5.73275,0 10.56034,-4.82758394 10.56034,-10.86206414 v -74.224104 c 0,-17.801716 9.95689,-34.396536 32.58619,-34.396536 21.724126,0 29.870674,14.78448 29.870674,34.396536 v 74.224104 c 0,6.0344802 4.827584,10.86206414 10.862064,10.86206414 h 16.59482 c 6.03448,0 10.862064,-4.82758394 10.862064,-10.86206414 v -82.068928 c 0,-32.586192 -17.499992,-63.663762 -56.120664,-63.663762 z"
       style="font-style:normal;font-variant:normal;font-weight:500;font-stretch:normal;font-size:301.724px;line-height:1.25;font-family:'MADE Tommy Soft';-inkscape-font-specification:'MADE Tommy Soft Medium';letter-spacing:0px;word-spacing:0px;stroke-width:0;stroke-miterlimit:4;stroke-dasharray:none"
       id="path863" />
    <path
       d="m 76.023355,-128.61435 v -13.57758 c 0,-6.03448 -4.827584,-10.86206 -10.862064,-10.86206 H 43.437163 v -21.12068 c 0,-6.03448 -4.827584,-10.86207 -10.862064,-10.86207 H 15.678555 c -6.0344797,0 -10.5603397,4.82759 -10.5603397,10.86207 v 21.12068 H -8.7610886 c -5.7327564,0 -10.5603404,4.82758 -10.5603404,10.86206 v 13.57758 c 0,5.73276 4.827584,10.56034 10.5603404,10.56034 H 5.1182153 v 62.155144 c 0,31.68102 15.6896477,57.9310081 54.9137677,57.9310081 3.620688,0 6.336204,0 9.05172,-0.301724 3.922412,-0.603448 6.939652,-3.922412 6.939652,-8.1465479 V -26.329914 c 0,-4.52586 -3.922412,-8.146548 -8.448272,-8.146548 -0.301724,0 -0.301724,0 -0.603448,0 -21.12068,0 -23.534472,-10.258616 -23.534472,-27.758608 v -55.81894 h 21.724128 c 6.03448,0 10.862064,-4.82758 10.862064,-10.56034 z"
       style="font-style:normal;font-variant:normal;font-weight:500;font-stretch:normal;font-size:301.724px;line-height:1.25;font-family:'MADE Tommy Soft';-inkscape-font-specification:'MADE Tommy Soft Medium';letter-spacing:0px;word-spacing:0px;stroke-width:0;stroke-miterlimit:4;stroke-dasharray:none"
       id="path865" />
    <path
       d="m 219.35639,-142.19193 v 7.24138 c -9.65517,-12.67241 -25.04309,-21.72413 -48.87928,-21.72413 -47.37067,0 -74.525833,40.12929 -74.525833,80.258582 0,39.827568 27.155163,79.9568601 74.525833,79.9568601 23.83619,0 39.22411,-9.0517199 48.87928,-21.7241281 v 7.241376 c 0,6.0344802 4.82759,10.86206414 10.86207,10.86206414 h 16.59482 c 6.03448,0 10.86206,-4.82758394 10.86206,-10.86206414 v -131.24994 c 0,-6.03448 -4.82758,-10.86206 -10.86206,-10.86206 h -16.59482 c -6.03448,0 -10.86207,4.82758 -10.86207,10.86206 z m -42.8448,109.224088 c -26.24999,0 -41.33619,-20.215508 -41.33619,-43.448256 0,-23.534472 15.0862,-43.448252 41.33619,-43.448252 26.24998,0 41.33618,19.61206 41.33618,43.448252 0,23.534472 -15.0862,43.448256 -41.33618,43.448256 z"
       style="font-style:normal;font-variant:normal;font-weight:500;font-stretch:normal;font-size:301.724px;line-height:1.25;font-family:'MADE Tommy Soft';-inkscape-font-specification:'MADE Tommy Soft Medium';letter-spacing:0px;word-spacing:0px;stroke-width:0;stroke-miterlimit:4;stroke-dasharray:none"
       id="path867" />
    <path
       d="m 305.03187,-0.07992586 h 16.59482 c 6.03448,0 10.86206,-4.82758394 10.86206,-10.86206414 v -131.24994 c 0,-6.03448 -4.82758,-10.86206 -10.86206,-10.86206 h -16.59482 c -6.03448,0 -10.86206,4.82758 -10.86206,10.86206 v 131.24994 c 0,6.0344802 4.82758,10.86206414 10.86206,10.86206414 z M 313.17842,-168.93565 c 11.46551,0 20.51723,-9.35344 20.51723,-20.51723 0,-11.16379 -9.05172,-20.51723 -20.51723,-20.51723 -11.16379,0 -20.21551,9.35344 -20.21551,20.51723 0,11.16379 9.05172,20.51723 20.21551,20.51723 z"
       style="font-style:normal;font-variant:normal;font-weight:500;font-stretch:normal;font-size:301.724px;line-height:1.25;font-family:'MADE Tommy Soft';-inkscape-font-specification:'MADE Tommy Soft Medium';letter-spacing:0px;word-spacing:0px;stroke-width:0;stroke-miterlimit:4;stroke-dasharray:none"
       id="path869"
       sodipodi:nodetypes="ssssssssssssss" />
    <path
       id="path2"
       d="m 544.07974,-198.79107 c -1.50412,0.0158 -3.02721,0.39482 -4.43641,1.17231 v 0.0387 c -4.50944,2.48797 -6.10359,8.16349 -3.61562,12.67293 l 1.86627,3.38254 c 3.77082,6.76416 4.47058,14.61635 2.33247,21.69151 -8.94113,-5.01481 -19.24318,-7.85235 -30.24466,-7.85235 -9.4465,0 -18.38778,2.09908 -26.39594,5.86991 -7.4639,3.49869 -4.08151,12.78986 4.19876,12.78986 h 6.64738 c 5.17031,0 9.32988,4.15956 9.32988,9.32987 v 31.0996 c 0,5.17031 4.15957,9.329883 9.32988,9.329883 h 28.41712 c 3.53757,0 6.76416,2.02178 8.358,5.17061 l 4.54876,9.09602 c 3.2266,6.37543 11.93404,6.76477 14.30537,0.0395 2.25472,-6.41429 3.45999,-13.33426 3.45999,-20.526043 0,-16.36616 -6.29782,-31.25509 -16.67732,-42.3732 6.37543,-13.33395 6.18089,-29.27249 -1.32187,-42.76194 l -1.86554,-3.38178 c -1.71047,-3.10025 -4.92749,-4.82281 -8.23652,-4.78794 z m -87.46763,12.44895 c -1.30126,-0.0111 -2.60286,-8.2e-4 -3.90414,0.002 -4.50294,0.0833 -8.9233,2.11081 -11.93569,5.45686 -2.80518,3.0732 -4.38816,7.22687 -4.32251,11.38901 0.0376,3.64507 1.30536,7.27227 3.57843,10.12559 -3.27565,2.95897 -5.30291,7.26057 -5.45306,11.67678 -0.18361,4.25282 1.34543,8.55069 4.18812,11.72157 2.99964,3.39825 7.436,5.49401 11.9744,5.58593 1.80199,0.0325 3.60445,-0.004 5.40675,0.0114 1.95933,-0.0139 3.94161,0.0951 5.87218,-0.31359 4.07247,-0.80128 7.80713,-3.18468 10.23568,-6.55247 2.30736,-3.16062 3.44174,-7.15145 3.1335,-11.05341 -0.3088,-4.20189 -2.28508,-8.2557 -5.42194,-11.07165 2.70483,-3.39466 3.97668,-7.87854 3.47745,-12.18852 -0.45592,-4.15899 -2.55481,-8.10753 -5.74765,-10.81197 -3.04975,-2.60962 -7.06538,-4.06472 -11.08152,-3.97704 z m -37.08414,6.8e-4 c -0.1214,-0.004 -0.2431,-0.003 -0.36444,6.7e-4 -1.22668,0.0247 -2.37592,0.57056 -3.34382,1.29303 -3.68847,2.46632 -7.39285,4.90944 -11.06708,7.39603 -1.76409,1.3367 -2.50257,3.84452 -1.75239,5.92608 0.6591,1.97365 2.56249,3.46557 4.64596,3.5921 1.38863,0.11529 2.77406,-0.3837 3.86695,-1.22622 0.84132,-0.56255 1.68249,-1.12531 2.5238,-1.68785 v 30.01233 c -2.17665,0.009 -4.35476,-0.0242 -6.53046,0.0251 -2.23565,0.19377 -4.22593,1.95936 -4.67481,4.16003 -0.46402,2.03326 0.39519,4.29842 2.1138,5.48874 1.0667,0.77632 2.41792,1.06862 3.72041,0.98781 7.46253,-0.004 14.92557,0.0126 22.38776,-0.0114 2.23565,-0.11597 4.27666,-1.80998 4.80541,-3.9854 0.5621,-2.09406 -0.30891,-4.48718 -2.10849,-5.7059 -1.0614,-0.75624 -2.39551,-1.03819 -3.68245,-0.95894 h -5.36953 c -0.002,-13.42097 0.006,-26.84236 -0.008,-40.2632 -0.0892,-2.29164 -1.83919,-4.40027 -4.08107,-4.89652 -0.35381,-0.0876 -0.71698,-0.13525 -1.0812,-0.14654 z m 33.59304,10.65404 c 1.43201,0.0209 2.86571,-0.0269 4.29669,0.0251 1.84121,0.16192 3.58398,1.22721 4.55333,2.80322 0.17246,0.26883 0.37402,0.65106 0.50188,0.99084 0.77728,1.97587 0.41849,4.35454 -0.95061,5.98607 -1.18779,1.45254 -3.07645,2.29348 -4.95194,2.19048 -1.4218,-0.0173 -2.84761,0.0522 -4.26632,-0.0524 -2.41867,-0.30099 -4.53347,-2.22896 -5.04382,-4.61483 -0.45853,-1.99134 0.17591,-4.19781 1.65673,-5.61402 1.10907,-1.08241 2.65271,-1.7184 4.20406,-1.71443 z m -62.08758,0.45402 c -0.0527,6.7e-4 -0.10533,-8.2e-4 -0.15793,6.7e-4 -2.35583,0.0436 -4.47527,2.12804 -4.51613,4.49184 -0.03,2.0453 -0.003,4.09155 -0.0129,6.13715 v 2.52077 c -2.99503,0.01 -5.9922,-0.0284 -8.98593,0.0319 -2.24269,0.22394 -4.13482,2.26899 -4.16839,4.52597 -0.11012,2.23745 1.59398,4.42622 3.81684,4.79705 1.07026,0.18721 2.16057,0.0485 3.2398,0.0926 h 6.09768 c 0.01,2.99429 -0.0279,5.99064 0.0319,8.98365 0.21989,2.21162 2.20866,4.08198 4.42956,4.16915 2.50264,0.20006 4.91316,-1.96044 4.98231,-4.47057 0.009,-2.39525 6.8e-4,-4.7916 0.004,-7.18723 v -1.495 c 2.98145,-0.007 5.96447,0.0237 8.94493,-0.0281 2.2593,-0.20293 4.17517,-2.25861 4.20937,-4.52904 0.11043,-2.2381 -1.59481,-4.42951 -3.81987,-4.79705 -1.06931,-0.18715 -2.15837,-0.0492 -3.23675,-0.0934 h -6.09769 c -0.01,-2.99452 0.0281,-5.99115 -0.0319,-8.9844 -0.22708,-2.31093 -2.39887,-4.25 -4.72872,-4.1661 z m 64.21884,22.2025 c 1.36077,-0.002 2.72085,-5e-5 4.08106,0.0288 2.42534,0.19756 4.60941,2.0348 5.22528,4.38857 0.56851,2.04253 -0.0411,4.36618 -1.5694,5.84333 -1.21482,1.20923 -2.95595,1.83887 -4.66266,1.73568 -2.55576,-0.0128 -5.11293,0.0286 -7.66784,-0.0258 -2.35463,-0.19763 -4.48747,-1.92911 -5.16606,-4.19267 -0.63779,-2.02719 -0.1061,-4.37731 1.38034,-5.90483 1.10412,-1.16465 2.68984,-1.86445 4.2967,-1.87234 1.36058,0.009 2.72181,0.002 4.08258,-6.8e-4 z m 20.51997,16.44497 -36.07584,72.112201 h 0.0395 c -6.68641,13.411703 -19.08783,23.052274 -33.70464,26.317733 l -19.35904,4.315669 c -7.89153,1.749353 -13.52864,8.746308 -13.52864,16.832204 0,9.5242539 7.73618,17.26042993 17.26043,17.26042993 h 22.85776 c 54.8519,0 104.61142,-26.47323093 135.63327,-68.49655393 l -9.29116,-18.58232 h -29.62207 c -10.30174,0 -18.65976,-8.35801 -18.65976,-18.659753 v -31.09961 z"
       style="stroke-width:0.388746" />
  </g>
  <g
     aria-label="cat"
     id="cat"
     style="font-weight:500;font-size:100px;font-family:'MADE Tommy Soft';text-anchor:middle;fill:#f5f5f5"
     class="cls-2">
    <path
       d="m 543.08607,172.88878 c -8.5,0 -13.8,-6.6 -13.8,-14.4 0,-7.9 5.3,-14.4 13.8,-14.4 4.5,0 8,1.8 10.4,4.6 0.9,1 2.3,1.3 3.4,0.6 l 6.4,-3.6 c 1.4,-0.9 1.8,-2.7 0.8,-4 -4.8,-6 -12.3,-9.8 -21,-9.8 -15.2,0 -26.8,11.7 -26.8,26.6 0,14.8 11.6,26.5 26.8,26.5 8.7,0 16.2,-3.8 21,-9.8 1,-1.3 0.6,-3.1 -0.8,-3.9 l -6.4,-3.7 c -1.1,-0.7 -2.5,-0.4 -3.4,0.6 -2.4,2.9 -5.9,4.7 -10.4,4.7 z"
       id="path858" />
    <path
       d="m 610.31107,137.031 v 2.4 c -3.2,-4.2 -8.3,-7.2 -16.2,-7.2 -15.7,0 -24.7,13.3 -24.7,26.6 0,13.2 9,26.5 24.7,26.5 7.9,0 13,-3 16.2,-7.2 v 2.4 c 0,2 1.6,3.6 3.6,3.6 h 5.5 c 2,0 3.6,-1.6 3.6,-3.6 v -43.5 c 0,-2 -1.6,-3.6 -3.6,-3.6 h -5.5 c -2,0 -3.6,1.6 -3.6,3.6 z m -14.2,36.2 c -8.7,0 -13.7,-6.7 -13.7,-14.4 0,-7.8 5,-14.4 13.7,-14.4 8.7,0 13.7,6.5 13.7,14.4 0,7.8 -5,14.4 -13.7,14.4 z"
       id="path860" />
    <path
       d="m 659.8767,141.531 v -4.5 c 0,-2 -1.6,-3.6 -3.6,-3.6 h -7.2 v -7 c 0,-2 -1.6,-3.6 -3.6,-3.6 h -5.6 c -2,0 -3.5,1.6 -3.5,3.6 v 7 h -4.6 c -1.9,0 -3.5,1.6 -3.5,3.6 v 4.5 c 0,1.9 1.6,3.5 3.5,3.5 h 4.6 v 20.6 c 0,10.5 5.2,19.2 18.2,19.2 1.2,0 2.1,0 3,-0.1 1.3,-0.2 2.3,-1.3 2.3,-2.7 v -6.6 c 0,-1.5 -1.3,-2.7 -2.8,-2.7 -0.1,0 -0.1,0 -0.2,0 -7,0 -7.8,-3.4 -7.8,-9.2 v -18.5 h 7.2 c 2,0 3.6,-1.6 3.6,-3.5 z"
       id="path862" />
  </g>
  <path
     id="line_1"
     data-name="line_1"
     class="cls-3"
     d="m 6,145.763 v -1 h 497 v 1 z"
     style="fill:#d91883;fill-opacity:1;stroke:#d91883;stroke-opacity:1" />
  <path
     id="line_2"
     data-name="line_2"
     class="cls-3"
     d="m 153,178.763 v -1 h 328 v 1 z"
     style="fill:#d91883;fill-opacity:1;stroke:#d91883;stroke-opacity:1" />
  <path
     id="line_3"
     data-name="line_3"
     class="cls-3"
     d="m 503.339,177.263 v 0.5 h -0.6 v -0.5 z"
     style="stroke:#d91883;stroke-opacity:1;fill:#d91883;fill-opacity:1" />
</svg>
