<?xml version="1.0" encoding="UTF-8" standalone="no"?>
<svg
   width="1920"
   height="1080"
   viewBox="0 0 508 285.75001"
   version="1.1"
   id="svg8"
   sodipodi:docname="social_networks_hentai.svg"
   inkscape:export-xdpi="96"
   inkscape:export-ydpi="96"
   inkscape:version="1.2.2 (b0a8486541, 2022-12-01)"
   inkscape:export-filename="social_networks_hentai.png"
   xmlns:inkscape="http://www.inkscape.org/namespaces/inkscape"
   xmlns:sodipodi="http://sodipodi.sourceforge.net/DTD/sodipodi-0.dtd"
   xmlns:xlink="http://www.w3.org/1999/xlink"
   xmlns="http://www.w3.org/2000/svg"
   xmlns:svg="http://www.w3.org/2000/svg"
   xmlns:rdf="http://www.w3.org/1999/02/22-rdf-syntax-ns#"
   xmlns:cc="http://creativecommons.org/ns#"
   xmlns:dc="http://purl.org/dc/elements/1.1/">
  <defs
     id="defs2">
    <rect
       x="157.64983"
       y="53.969653"
       width="504.65792"
       height="195.75436"
       id="rect1418" />
    <linearGradient
       inkscape:collect="always"
       id="linearGradient1017">
      <stop
         style="stop-color:#d12082;stop-opacity:0;"
         offset="0"
         id="stop1015" />
      <stop
         style="stop-color:#881253;stop-opacity:1;"
         offset="1"
         id="stop1013" />
    </linearGradient>
    <linearGradient
       inkscape:collect="always"
       xlink:href="#linearGradient1017"
       id="linearGradient1023"
       x1="255.32683"
       y1="-245.31342"
       x2="250.4691"
       y2="285.64664"
       gradientUnits="userSpaceOnUse" />
    <rect
       x="157.64983"
       y="53.969654"
       width="504.65793"
       height="195.75436"
       id="rect1418-7" />
    <rect
       x="157.64983"
       y="53.969654"
       width="504.65793"
       height="195.75436"
       id="rect1418-7-3" />
    <rect
       x="157.64983"
       y="53.969654"
       width="504.65793"
       height="195.75436"
       id="rect1418-7-3-6" />
    <rect
       x="157.64983"
       y="53.969654"
       width="504.65793"
       height="195.75436"
       id="rect1418-7-3-6-9" />
  </defs>
  <sodipodi:namedview
     id="base"
     pagecolor="#ffffff"
     bordercolor="#666666"
     borderopacity="1.0"
     inkscape:pageopacity="0.0"
     inkscape:pageshadow="2"
     inkscape:zoom="0.5"
     inkscape:cx="983"
     inkscape:cy="394"
     inkscape:document-units="mm"
     inkscape:current-layer="g680"
     inkscape:document-rotation="0"
     showgrid="false"
     units="px"
     inkscape:window-width="1920"
     inkscape:window-height="1011"
     inkscape:window-x="1920"
     inkscape:window-y="32"
     inkscape:window-maximized="1"
     inkscape:showpageshadow="2"
     inkscape:pagecheckerboard="0"
     inkscape:deskcolor="#d1d1d1" />
  <metadata
     id="metadata5">
    <rdf:RDF>
      <cc:Work
         rdf:about="">
        <dc:format>image/svg+xml</dc:format>
        <dc:type
           rdf:resource="http://purl.org/dc/dcmitype/StillImage" />
        <dc:title />
      </cc:Work>
    </rdf:RDF>
  </metadata>
  <g
     inkscape:label="Capa 1"
     inkscape:groupmode="layer"
     id="layer1">
    <image
       xlink:href="../websites/static/images/site/background_dark_hentai_uhd.jpg"
       width="508"
       height="285.75"
       preserveAspectRatio="none"
       style="image-rendering:optimizeQuality"
       id="image843"
       x="0"
       y="0" />
    <rect
       style="opacity:0.5;fill:#000000;fill-opacity:1;stroke:none;stroke-width:1.04772;stroke-opacity:1;paint-order:stroke fill markers"
       id="rect1048"
       width="508"
       height="285.75"
       x="0"
       y="-285.75"
       transform="scale(1,-1)" />
    <rect
       style="fill:url(#linearGradient1023);fill-opacity:1;stroke:none;stroke-width:1.04772;stroke-opacity:1;paint-order:stroke fill markers;opacity:0.75"
       id="rect847"
       width="508"
       height="285.75"
       x="0"
       y="0" />
    <!--!Font Awesome Free 6.6.0 by @fontawesome - https://fontawesome.com License - https://fontawesome.com/license/free Copyright 2024 Fonticons, Inc.-->
    <!--!Font Awesome Free 6.6.0 by @fontawesome - https://fontawesome.com License - https://fontawesome.com/license/free Copyright 2024 Fonticons, Inc.-->
    <!--!Font Awesome Free 6.6.0 by @fontawesome - https://fontawesome.com License - https://fontawesome.com/license/free Copyright 2024 Fonticons, Inc.-->
    <!--!Font Awesome Free 6.6.0 by @fontawesome - https://fontawesome.com License - https://fontawesome.com/license/free Copyright 2024 Fonticons, Inc.-->
    <image
       xlink:href="logo_hentai_uncompressed.svg"
       preserveAspectRatio="none"
       inkscape:svg-dpi="96"
       width="129.5155"
       height="36.303589"
       style="image-rendering:optimizeQuality"
       id="image1332"
       x="364.15103"
       y="235.11378" />
    <text
       xml:space="preserve"
       id="text1416"
       style="font-style:normal;font-variant:normal;font-weight:500;font-stretch:normal;font-size:38.8056px;line-height:1;font-family:'MADE Tommy Soft';-inkscape-font-specification:'MADE Tommy Soft Medium';text-align:center;letter-spacing:0px;word-spacing:0px;white-space:pre;shape-inside:url(#rect1418);display:inline;fill:#ffffff;fill-opacity:1"
       x="201.74527"
       y="0"
       transform="translate(-156.75561,-39.586985)"><tspan
         x="176.02075"
         y="84.387473"
         id="tspan34739">Les nostres xarxes socials</tspan></text>
    <g
       id="g680"
       transform="translate(-14.018391,11.524226)">
      <g
         id="g34659"
         transform="translate(-23.821732)">
        <path
           d="m 116,148 c -8.83871,0 -16,7.16129 -16,15.99999 0,8.8387 7.16129,15.99999 16,15.99999 8.8387,0 16,-7.16129 16,-15.99999 C 132,155.16129 124.8387,148 116,148 Z m 7.41935,10.88387 c -0.23871,2.52903 -1.28387,8.67096 -1.8129,11.50321 -0.22581,1.2 -0.66452,1.6 -1.09033,1.63871 -0.92903,0.0838 -1.63225,-0.6129 -2.53548,-1.20645 -1.40645,-0.92257 -2.20646,-1.49677 -3.56774,-2.39999 -1.58064,-1.03871 -0.55484,-1.61291 0.34193,-2.54839 0.23872,-0.24516 4.32904,-3.96775 4.40647,-4.30323 0.013,-0.0452 0.0194,-0.2 -0.0774,-0.28386 -0.0968,-0.0838 -0.23226,-0.0516 -0.32903,-0.0323 q -0.21291,0.0452 -6.7484,4.45806 -0.95484,0.65808 -1.73548,0.63872 c -0.57419,-0.013 -1.67097,-0.32259 -2.49032,-0.5871 -1,-0.32259 -1.8,-0.49677 -1.72904,-1.05162 q 0.0516,-0.43226 1.19356,-0.88387 6.99353,-3.04515 9.32902,-4.01935 c 4.44517,-1.84516 5.36775,-2.16775 5.96775,-2.18065 0.13548,0 0.42581,0.0323 0.61936,0.1871 a 0.67741905,0.67741905 0 0 1 0.22579,0.43226 2.8258052,2.8258052 0 0 1 0.0323,0.63872 z"
           id="path317"
           style="fill:#ffffff;stroke-width:0.0645158" />
        <path
           d="m 122.65555,84.37339 c -0.18333,-0.02221 -0.37221,-0.04442 -0.55555,-0.07222 0.18889,0.02221 0.37222,0.04998 0.55555,0.07222 z M 116,80.617855 c -1.45001,-2.816649 -5.39445,-8.066632 -9.06112,-10.655521 -3.51665,-2.483333 -4.85554,-2.055557 -5.73888,-1.655557 -1.01667,0.461113 -1.2,2.02222 -1.2,2.938891 0,0.916665 0.50555,7.533312 0.83333,8.63886 1.08333,3.64998 4.95,4.883303 8.51111,4.483306 0.18333,-0.02778 0.36666,-0.04998 0.55556,-0.07778 -0.18334,0.02778 -0.36668,0.05555 -0.55556,0.07778 -5.21667,0.777768 -9.849995,2.677762 -3.77222,9.438868 6.68332,6.922208 9.15555,-1.483334 10.42778,-5.744434 1.27222,4.2611 2.73333,12.361092 10.3111,5.744434 5.6889,-5.744434 1.56113,-8.666655 -3.65555,-9.438868 -0.18333,-0.02221 -0.37221,-0.04442 -0.55555,-0.07222 0.18889,0.02221 0.37222,0.04998 0.55555,0.07222 3.56112,0.394442 7.42223,-0.838888 8.51112,-4.483306 C 131.49444,78.77898 132,72.167888 132,71.245668 c 0,-0.922227 -0.18333,-2.483333 -1.2,-2.938891 -0.87779,-0.394445 -2.22223,-0.827776 -5.73333,1.655557 -3.67223,2.588889 -7.61668,7.838872 -9.06667,10.655521 z"
           id="path326"
           style="fill:#ffffff;stroke-width:0.0555554" />
        <path
           d="m 125.19947,188 h 4.90917 L 119.38635,200.25207 132,216.92655 h -9.87397 l -7.73924,-10.11039 -8.84486,10.11039 h -4.91611 L 112.09213,203.81921 100,188 h 10.1243 l 6.98826,9.24119 z m -1.72445,25.99216 h 2.7188 L 108.6432,190.78139 h -2.92048 z"
           id="path299"
           style="fill:#ffffff;stroke-width:0.0695347" />
        <path
           d="m 131.99873,119.26249 c 0,-7.44133 -4.87667,-9.6232 -4.87667,-9.6232 -4.78483,-2.19719 -17.50091,-2.17422 -22.23978,0 0,0 -4.87668,2.18187 -4.87668,9.6232 0,8.85764 -0.505592,19.85889 8.08441,22.13262 3.10054,0.81917 5.76474,0.99525 7.90834,0.87276 3.88909,-0.21433 6.07098,-1.38568 6.07098,-1.38568 l -0.12992,-2.82496 c 0,0 -2.77901,0.87275 -5.90253,0.77323 -3.09292,-0.1072 -6.35423,-0.33683 -6.85951,-4.13408 a 7.847091,7.847091 0 0 1 -0.0691,-1.06414 c 6.55327,1.60004 12.14962,0.69667 13.68844,0.51296 4.29485,-0.51296 8.03845,-3.1618 8.51308,-5.58101 0.75027,-3.81253 0.68902,-9.30166 0.68902,-9.30166 z m -5.74943,9.58494 h -3.56756 v -8.74281 c 0,-3.80488 -4.89964,-3.95034 -4.89964,0.52826 v 4.78481 h -3.54457 v -4.78481 c 0,-4.4786 -4.89965,-4.33313 -4.89965,-0.52826 v 8.74281 h -3.58284 c 0,-9.34761 -0.39808,-11.32278 1.40864,-13.39747 1.98278,-2.21249 6.10924,-2.35796 7.94661,0.467 l 0.88806,1.49287 0.88807,-1.49287 c 1.84499,-2.84026 5.97907,-2.66418 7.94662,-0.467 1.8144,2.09 1.40864,4.05752 1.40864,13.39747 z"
           id="path308"
           style="fill:#ffffff;stroke-width:0.0765568" />
        <text
           xml:space="preserve"
           id="text1416-5"
           style="font-style:normal;font-variant:normal;font-weight:500;font-stretch:normal;font-size:21.1667px;line-height:1;font-family:'MADE Tommy Soft';-inkscape-font-specification:'MADE Tommy Soft Medium';text-align:center;letter-spacing:0px;word-spacing:0px;white-space:pre;shape-inside:url(#rect1418-7);display:inline;fill:#ffffff;fill-opacity:1"
           x="201.74527"
           y="0"
           transform="translate(-130.98113,18.869736)"><tspan
             x="273.83535"
             y="70.560788"
             id="tspan34741">@hentaipuntcat.bsky.social</tspan></text>
        <text
           xml:space="preserve"
           id="text1416-5-5"
           style="font-style:normal;font-variant:normal;font-weight:500;font-stretch:normal;font-size:21.1667px;line-height:1;font-family:'MADE Tommy Soft';-inkscape-font-specification:'MADE Tommy Soft Medium';text-align:center;letter-spacing:0px;word-spacing:0px;white-space:pre;shape-inside:url(#rect1418-7-3);display:inline;fill:#ffffff;fill-opacity:1"
           x="201.74527"
           y="0"
           transform="translate(-96.077258,58.869736)"><tspan
             x="238.93148"
             y="70.560788"
             id="tspan34743">@hentaipuntcat@mastodon.social</tspan></text>
        <text
           xml:space="preserve"
           id="text1416-5-5-2"
           style="font-style:normal;font-variant:normal;font-weight:500;font-stretch:normal;font-size:21.1667px;line-height:1;font-family:'MADE Tommy Soft';-inkscape-font-specification:'MADE Tommy Soft Medium';text-align:center;letter-spacing:0px;word-spacing:0px;white-space:pre;shape-inside:url(#rect1418-7-3-6);display:inline;fill:#ffffff;fill-opacity:1"
           x="201.74527"
           y="0"
           transform="translate(-169.40925,100.28791)"><tspan
             x="312.98314"
             y="70.560788"
             id="tspan34745">t.me/hentaipuntcat</tspan></text>
        <text
           xml:space="preserve"
           id="text1416-5-5-2-1"
           style="font-style:normal;font-variant:normal;font-weight:500;font-stretch:normal;font-size:21.1667px;line-height:1;font-family:'MADE Tommy Soft';-inkscape-font-specification:'MADE Tommy Soft Medium';text-align:center;letter-spacing:0px;word-spacing:0px;white-space:pre;shape-inside:url(#rect1418-7-3-6-9);display:inline;fill:#ffffff;fill-opacity:1"
           x="201.74527"
           y="0"
           transform="translate(-187.19985,138.86974)"><tspan
             x="330.05407"
             y="70.560788"
             id="tspan34747">@hentaipuntcat</tspan></text>
      </g>
    </g>
  </g>
</svg>
