<?xml version="1.0" standalone="no"?>
<!DOCTYPE svg PUBLIC "-//W3C//DTD SVG 20010904//EN"
 "http://www.w3.org/TR/2001/REC-SVG-20010904/DTD/svg10.dtd">
<svg version="1.0" xmlns="http://www.w3.org/2000/svg"
 width="675.000000pt" height="675.000000pt" viewBox="0 0 675.000000 675.000000"
 preserveAspectRatio="xMidYMid meet">
<metadata>
Created by potrace 1.14, written by Peter Selinger 2001-2017
</metadata>
<g transform="translate(0.000000,675.000000) scale(0.100000,-0.100000)"
fill="#000000" stroke="none">
<path d="M1060 6744 c-171 -29 -300 -77 -426 -160 -198 -130 -345 -336 -407
-567 l-22 -82 0 -2560 c0 -2439 1 -2563 18 -2625 96 -346 319 -587 645 -699
146 -50 194 -52 879 -48 613 3 641 4 718 24 327 87 584 318 689 619 54 155 56
179 56 779 l0 555 165 0 165 0 0 -554 c0 -597 2 -627 54 -775 106 -305 363
-537 689 -623 79 -21 104 -22 722 -26 548 -3 653 -1 733 13 206 35 379 124
525 269 122 122 199 252 254 431 l28 90 0 2565 0 2565 -23 85 c-81 307 -314
562 -611 670 -157 57 -194 60 -868 60 -581 0 -620 -1 -716 -21 -363 -74 -643
-328 -754 -685 l-28 -89 -5 -565 -5 -565 -160 0 -160 0 -5 565 c-6 551 -7 567
-29 640 -106 350 -362 599 -713 692 -81 21 -99 22 -733 24 -357 1 -661 0 -675
-2z m1305 -645 c73 -27 156 -104 192 -177 l28 -57 3 -832 3 -833 784 0 784 0
3 833 3 832 28 57 c36 74 119 150 193 178 55 20 67 21 678 18 l621 -3 51 -27
c79 -41 150 -126 174 -206 20 -67 20 -83 18 -2527 l-3 -2460 -27 -57 c-56
-121 -152 -191 -284 -209 -50 -6 -278 -9 -624 -7 -542 3 -545 3 -602 26 -81
33 -158 106 -194 184 l-29 63 -3 853 -2 852 -785 0 -784 0 -3 -852 -3 -853
-29 -63 c-36 -78 -113 -151 -194 -184 l-57 -23 -600 0 -600 0 -57 23 c-80 32
-150 99 -190 180 l-33 67 -3 2459 c-2 2687 -6 2513 53 2606 34 54 110 117 169
139 49 19 78 20 658 20 590 1 609 0 663 -20z"/>
</g>
</svg>
