<?xml version="1.0" standalone="no"?>
<!DOCTYPE svg PUBLIC "-//W3C//DTD SVG 20010904//EN"
 "http://www.w3.org/TR/2001/REC-SVG-20010904/DTD/svg10.dtd">
<svg version="1.0" xmlns="http://www.w3.org/2000/svg"
 width="700.000000pt" height="700.000000pt" viewBox="0 0 700.000000 700.000000"
 preserveAspectRatio="xMidYMid meet">
<metadata>
Created by potrace 1.14, written by Peter Selinger 2001-2017
</metadata>
<g transform="translate(0.000000,700.000000) scale(0.100000,-0.100000)"
fill="#000000" stroke="none">
<path d="M1005 6225 c-307 -67 -536 -288 -617 -595 l-23 -85 0 -2045 0 -2045
23 -85 c62 -235 213 -420 427 -526 164 -80 142 -78 750 -82 465 -3 550 -1 618
13 321 65 571 319 633 642 8 41 14 118 14 170 l0 96 67 -70 c78 -79 137 -123
227 -163 122 -56 174 -65 376 -65 216 0 263 10 409 81 77 38 110 62 179 130
47 46 86 84 87 84 2 0 5 -64 7 -142 4 -127 8 -153 35 -230 89 -255 279 -436
543 -520 l75 -23 575 0 575 0 95 33 c272 95 458 295 532 572 l23 85 0 2045 0
2045 -22 85 c-81 307 -317 534 -619 595 -69 14 -164 15 -729 13 -636 -4 -652
-4 -719 -26 -86 -27 -181 -71 -243 -113 -62 -41 -176 -152 -216 -209 -17 -25
-156 -262 -308 -528 l-277 -483 -20 33 c-11 18 -133 233 -272 478 -139 245
-272 472 -295 506 -118 165 -316 290 -523 330 -103 20 -1296 19 -1387 -1z
m1356 -526 c31 -15 74 -43 95 -62 30 -26 162 -252 539 -916 275 -484 502 -880
505 -881 3 0 228 391 500 868 321 562 510 883 538 913 26 28 67 58 105 75 l62
29 600 0 600 0 46 -23 c61 -30 116 -86 143 -142 l21 -45 3 -1995 c3 -2273 11
-2063 -86 -2160 -88 -87 -75 -85 -637 -85 l-480 0 -57 28 c-61 30 -105 74
-140 140 l-23 42 -3 1059 -2 1059 -466 -804 c-256 -442 -477 -816 -492 -832
-51 -54 -96 -67 -228 -67 -109 0 -125 2 -171 25 -37 19 -61 41 -86 78 -19 29
-237 401 -484 827 l-448 775 -5 -1065 -5 -1065 -22 -42 c-28 -51 -83 -106
-128 -127 -69 -33 -141 -37 -598 -34 -435 3 -454 4 -498 24 -63 30 -116 79
-147 138 l-27 51 -3 1995 c-2 2227 -8 2056 69 2144 47 53 102 85 168 96 25 5
302 7 616 7 l570 -2 56 -26z"/>
</g>
</svg>
