<?xml version="1.0" standalone="no"?>
<!DOCTYPE svg PUBLIC "-//W3C//DTD SVG 20010904//EN"
 "http://www.w3.org/TR/2001/REC-SVG-20010904/DTD/svg10.dtd">
<svg version="1.0" xmlns="http://www.w3.org/2000/svg"
 width="675.000000pt" height="675.000000pt" viewBox="0 0 675.000000 675.000000"
 preserveAspectRatio="xMidYMid meet">
<metadata>
Created by potrace 1.14, written by Peter Selinger 2001-2017
</metadata>
<g transform="translate(0.000000,675.000000) scale(0.100000,-0.100000)"
fill="#000000" stroke="none">
<path d="M830 6735 c-351 -65 -646 -314 -758 -641 -55 -161 -52 -12 -50 -2754
l3 -2525 22 -77 c110 -387 406 -657 793 -723 76 -14 178 -16 662 -13 l573 4
100 27 c379 103 637 389 720 799 l5 26 74 -28 c125 -46 192 -55 416 -54 220 0
281 9 403 59 34 13 62 23 63 22 2 -1 10 -38 19 -82 80 -388 395 -691 791 -760
126 -22 1131 -22 1257 0 346 60 627 295 747 625 64 174 61 6 57 2780 l-2 2525
-22 70 c-50 167 -97 259 -191 376 -146 182 -354 303 -589 344 -70 12 -208 15
-753 15 -692 0 -750 -3 -890 -44 -195 -58 -379 -181 -505 -340 -88 -109 -115
-164 -260 -531 -69 -176 -130 -324 -134 -328 -4 -4 -65 140 -136 320 -70 180
-143 355 -161 389 -141 259 -376 435 -684 511 -56 14 -161 17 -780 19 -574 2
-730 0 -790 -11z m1522 -647 c67 -31 140 -96 173 -152 13 -23 206 -509 430
-1081 224 -572 411 -1046 414 -1053 8 -14 25 28 542 1337 313 793 314 795 367
853 36 38 76 69 120 90 l67 33 700 0 700 0 45 -24 c70 -37 98 -61 135 -115 70
-103 66 94 63 -2627 l-3 -2454 -28 -60 c-34 -72 -95 -138 -160 -171 -78 -40
-165 -46 -682 -42 -526 4 -516 3 -608 67 -55 37 -94 89 -124 160 l-23 56 0
1300 c0 862 -4 1294 -10 1283 -6 -9 -181 -454 -389 -988 -263 -674 -388 -983
-409 -1009 -16 -20 -55 -49 -87 -66 -57 -29 -62 -30 -204 -30 -140 0 -148 1
-203 28 -32 16 -72 46 -90 67 -26 30 -116 252 -418 1027 l-385 988 -5 -1310
-5 -1310 -28 -56 c-36 -74 -117 -149 -192 -180 l-60 -24 -535 0 c-530 0 -535
0 -590 22 -113 46 -197 148 -220 268 -8 44 -10 714 -8 2500 l3 2440 33 67 c39
80 111 148 185 177 51 20 72 20 742 18 l690 -2 57 -27z"/>
</g>
</svg>
