<?xml version="1.0" standalone="no"?>
<!DOCTYPE svg PUBLIC "-//W3C//DTD SVG 20010904//EN"
 "http://www.w3.org/TR/2001/REC-SVG-20010904/DTD/svg10.dtd">
<svg version="1.0" xmlns="http://www.w3.org/2000/svg"
 width="700.000000pt" height="700.000000pt" viewBox="0 0 700.000000 700.000000"
 preserveAspectRatio="xMidYMid meet">
<metadata>
Created by potrace 1.14, written by Peter Selinger 2001-2017
</metadata>
<g transform="translate(0.000000,700.000000) scale(0.100000,-0.100000)"
fill="#000000" stroke="none">
<path d="M2720 6225 c-272 -56 -508 -237 -620 -477 -17 -36 -332 -969 -700
-2074 -544 -1631 -672 -2024 -679 -2089 -25 -214 45 -424 192 -581 114 -122
223 -187 381 -224 76 -19 121 -20 671 -20 624 0 645 2 779 49 173 61 347 217
435 390 13 24 37 89 55 145 l33 101 233 0 233 0 33 -97 c82 -246 212 -402 419
-504 167 -82 138 -79 855 -79 l635 0 75 23 c207 65 360 194 455 383 65 127 91
275 74 414 -8 64 -149 497 -684 2105 -576 1727 -682 2038 -723 2109 -50 90
-162 217 -242 276 -66 49 -191 109 -280 136 -75 23 -75 23 -820 25 -589 2
-759 0 -810 -11z m1524 -525 c64 -24 137 -85 171 -145 24 -41 1337 -3958 1350
-4028 11 -55 -18 -136 -62 -179 -72 -70 -50 -68 -666 -68 -608 0 -606 0 -680
61 -60 49 -82 101 -152 349 -36 129 -68 243 -71 253 -5 16 -44 17 -634 17
l-629 0 -20 -67 c-11 -38 -43 -151 -71 -253 -55 -196 -79 -251 -132 -295 -79
-67 -55 -65 -676 -65 -614 0 -603 -1 -665 58 -16 15 -38 45 -50 67 -46 90 -80
-22 642 2135 364 1086 673 1994 686 2016 34 57 107 119 169 143 49 19 78 20
743 20 672 1 694 0 747 -19z"/>
<path d="M3496 4220 c-11 -28 -346 -1245 -346 -1257 0 -10 77 -13 350 -13 246
0 350 3 350 11 0 9 -333 1232 -344 1264 -2 6 -6 3 -10 -5z"/>
</g>
</svg>
