<?xml version="1.0" standalone="no"?>
<!DOCTYPE svg PUBLIC "-//W3C//DTD SVG 20010904//EN"
 "http://www.w3.org/TR/2001/REC-SVG-20010904/DTD/svg10.dtd">
<svg version="1.0" xmlns="http://www.w3.org/2000/svg"
 width="675.000000pt" height="675.000000pt" viewBox="0 0 675.000000 675.000000"
 preserveAspectRatio="xMidYMid meet">
<metadata>
Created by potrace 1.14, written by Peter Selinger 2001-2017
</metadata>
<g transform="translate(0.000000,675.000000) scale(0.100000,-0.100000)"
fill="#000000" stroke="none">
<path d="M2495 6734 c-220 -40 -412 -141 -572 -300 -78 -78 -168 -207 -209
-301 -29 -66 -1629 -4846 -1671 -4993 -25 -85 -28 -111 -27 -240 1 -126 5
-156 28 -233 97 -321 327 -547 653 -640 77 -22 84 -22 838 -22 693 0 766 2
833 18 372 90 633 346 739 724 l28 103 241 0 241 0 28 -101 c53 -190 146 -349
277 -474 94 -90 183 -149 298 -198 176 -74 155 -72 1005 -72 755 0 761 0 840
23 111 30 250 101 340 172 244 194 373 528 325 841 -16 103 -1652 5014 -1707
5124 -112 222 -298 399 -523 496 -47 20 -123 47 -170 60 l-85 23 -835 3 c-693
1 -849 -1 -915 -13z m1768 -651 c78 -37 163 -116 195 -183 12 -25 389 -1145
838 -2490 738 -2208 818 -2451 818 -2510 1 -107 -60 -202 -163 -252 l-46 -23
-690 0 -690 0 -60 24 c-70 28 -150 103 -183 171 -11 25 -59 180 -105 345 l-84
300 -716 3 -716 2 -20 -67 c-11 -38 -50 -176 -86 -308 -37 -132 -76 -258 -87
-280 -28 -56 -94 -122 -151 -151 -80 -41 -159 -45 -832 -42 -616 3 -631 3
-676 24 -66 31 -114 78 -145 141 -55 111 -115 -87 789 2620 449 1342 825 2460
837 2484 29 55 113 144 168 176 90 53 67 52 932 50 l805 -2 68 -32z"/>
<path d="M3370 4276 c0 -6 -344 -1464 -365 -1548 l-7 -28 376 0 c207 0 376 2
376 5 0 14 -370 1569 -375 1573 -3 3 -5 2 -5 -2z"/>
</g>
</svg>
